G04 #@! TF.FileFunction,Copper,L1,Top,Signal*
%FSLAX46Y46*%
G04 Gerber Fmt 4.6, Leading zero omitted, Abs format (unit mm)*
G04 Created by KiCad (PCBNEW 4.0.7) date Thursday, 12. October 2017 'u30' 16:30:57*
%MOMM*%
%LPD*%
G01*
G04 APERTURE LIST*
%ADD10C,0.100000*%
%ADD11C,1.600000*%
%ADD12R,1.600000X1.600000*%
%ADD13O,2.000000X2.000000*%
%ADD14R,2.000000X2.000000*%
%ADD15O,1.600000X1.600000*%
%ADD16O,1.998980X1.998980*%
%ADD17R,1.998980X1.998980*%
%ADD18R,1.700000X1.700000*%
%ADD19O,1.700000X1.700000*%
%ADD20C,3.000000*%
%ADD21R,1.800000X1.800000*%
%ADD22O,1.800000X1.800000*%
%ADD23C,1.501140*%
%ADD24C,1.998980*%
%ADD25C,2.000000*%
%ADD26C,1.524000*%
%ADD27C,0.600000*%
%ADD28C,0.250000*%
%ADD29C,0.254000*%
G04 APERTURE END LIST*
D10*
D11*
X144780000Y-87630000D03*
X147280000Y-87630000D03*
X102870000Y-68580000D03*
X105370000Y-68580000D03*
X129540000Y-63500000D03*
X132040000Y-63500000D03*
X129540000Y-66040000D03*
X132040000Y-66040000D03*
D12*
X100330000Y-73660000D03*
D11*
X102830000Y-73660000D03*
X151130000Y-68580000D03*
X151130000Y-71080000D03*
X152400000Y-64770000D03*
X154900000Y-64770000D03*
X152400000Y-59690000D03*
X154900000Y-59690000D03*
D13*
X90170000Y-64770000D03*
X95250000Y-59690000D03*
X90170000Y-59690000D03*
D14*
X95250000Y-64770000D03*
D15*
X144780000Y-83820000D03*
X144780000Y-81280000D03*
X144780000Y-78740000D03*
X144780000Y-76200000D03*
X144780000Y-73660000D03*
X144780000Y-71120000D03*
X144780000Y-68580000D03*
X144780000Y-66040000D03*
X144780000Y-63500000D03*
X144780000Y-60960000D03*
X144780000Y-58420000D03*
X144780000Y-55880000D03*
X144780000Y-53340000D03*
X144780000Y-50800000D03*
X137160000Y-50800000D03*
X137160000Y-53340000D03*
X137160000Y-55880000D03*
X137160000Y-58420000D03*
X137160000Y-60960000D03*
X137160000Y-63500000D03*
X137160000Y-66040000D03*
X137160000Y-68580000D03*
X137160000Y-71120000D03*
X137160000Y-73660000D03*
X137160000Y-76200000D03*
X137160000Y-78740000D03*
X137160000Y-81280000D03*
X137160000Y-83820000D03*
D16*
X92710000Y-48260000D03*
D17*
X90170000Y-48260000D03*
D16*
X81280000Y-48260000D03*
D17*
X78740000Y-48260000D03*
D11*
X134620000Y-71120000D03*
D15*
X134620000Y-63500000D03*
D18*
X162560000Y-81280000D03*
D19*
X162560000Y-78740000D03*
X162560000Y-76200000D03*
X162560000Y-73660000D03*
X162560000Y-71120000D03*
X162560000Y-68580000D03*
X162560000Y-66040000D03*
X162560000Y-63500000D03*
X162560000Y-60960000D03*
X162560000Y-58420000D03*
D18*
X123190000Y-48260000D03*
D19*
X123190000Y-50800000D03*
X123190000Y-53340000D03*
X123190000Y-55880000D03*
X123190000Y-58420000D03*
D18*
X123190000Y-64770000D03*
D19*
X123190000Y-67310000D03*
X123190000Y-69850000D03*
X123190000Y-72390000D03*
D18*
X133350000Y-58420000D03*
D19*
X130810000Y-58420000D03*
X133350000Y-55880000D03*
X130810000Y-55880000D03*
X133350000Y-53340000D03*
X130810000Y-53340000D03*
D18*
X123190000Y-76200000D03*
D19*
X123190000Y-78740000D03*
X123190000Y-81280000D03*
X123190000Y-83820000D03*
D18*
X128270000Y-76200000D03*
D19*
X128270000Y-78740000D03*
X128270000Y-81280000D03*
X128270000Y-83820000D03*
D11*
X92710000Y-82550000D03*
D15*
X102870000Y-82550000D03*
D11*
X119380000Y-76200000D03*
D15*
X119380000Y-86360000D03*
D11*
X115570000Y-76200000D03*
D15*
X115570000Y-86360000D03*
D20*
X74930000Y-82550000D03*
X82550000Y-82550000D03*
X74930000Y-62230000D03*
X82550000Y-57230000D03*
X82550000Y-67230000D03*
X74930000Y-67230000D03*
X82550000Y-62230000D03*
X74930000Y-57230000D03*
D21*
X100330000Y-64770000D03*
D22*
X102870000Y-64770000D03*
X105410000Y-64770000D03*
D23*
X148590000Y-59789060D03*
X148590000Y-64670940D03*
D24*
X91010740Y-75791060D03*
X94409260Y-68988940D03*
X92710000Y-74930000D03*
X92710000Y-69850000D03*
D14*
X110490000Y-45720000D03*
D25*
X110490000Y-48260000D03*
D14*
X115570000Y-45720000D03*
D25*
X115570000Y-48260000D03*
D14*
X107950000Y-80010000D03*
D25*
X105410000Y-80010000D03*
D11*
X110490000Y-52070000D03*
D15*
X110490000Y-62230000D03*
D11*
X115570000Y-52070000D03*
D15*
X115570000Y-62230000D03*
D11*
X102870000Y-80010000D03*
D15*
X92710000Y-80010000D03*
D11*
X147320000Y-68580000D03*
D15*
X147320000Y-83820000D03*
D26*
X88900000Y-82550000D03*
X88900000Y-85090000D03*
X88900000Y-80010000D03*
D27*
X140970000Y-67310000D03*
X140970000Y-71120000D03*
X151130000Y-68580000D03*
X125730000Y-73660000D03*
D28*
X140970000Y-67310000D02*
X140970000Y-71120000D01*
X162560000Y-60960000D02*
X161290000Y-60960000D01*
X161290000Y-60960000D02*
X160020000Y-62230000D01*
X151130000Y-68580000D02*
X152400000Y-67310000D01*
X152400000Y-67310000D02*
X158750000Y-67310000D01*
X158750000Y-67310000D02*
X160020000Y-66040000D01*
X160020000Y-66040000D02*
X160020000Y-63500000D01*
X160020000Y-63500000D02*
X160020000Y-62230000D01*
X115570000Y-62230000D02*
X115570000Y-76200000D01*
X134620000Y-73660000D02*
X125730000Y-73660000D01*
X134620000Y-73660000D02*
X137160000Y-71120000D01*
D29*
G36*
X108855000Y-44593690D02*
X108855000Y-45434250D01*
X109013750Y-45593000D01*
X110363000Y-45593000D01*
X110363000Y-45573000D01*
X110617000Y-45573000D01*
X110617000Y-45593000D01*
X111966250Y-45593000D01*
X112125000Y-45434250D01*
X112125000Y-44593690D01*
X112118087Y-44577000D01*
X113941913Y-44577000D01*
X113935000Y-44593690D01*
X113935000Y-45434250D01*
X114093750Y-45593000D01*
X115443000Y-45593000D01*
X115443000Y-45573000D01*
X115697000Y-45573000D01*
X115697000Y-45593000D01*
X117046250Y-45593000D01*
X117205000Y-45434250D01*
X117205000Y-44593690D01*
X117198087Y-44577000D01*
X164973000Y-44577000D01*
X164973000Y-88773000D01*
X148067399Y-88773000D01*
X148108139Y-88637745D01*
X147280000Y-87809605D01*
X146451861Y-88637745D01*
X146492601Y-88773000D01*
X145666173Y-88773000D01*
X145995824Y-88443923D01*
X146023423Y-88377456D01*
X146026136Y-88384005D01*
X146272255Y-88458139D01*
X147100395Y-87630000D01*
X147459605Y-87630000D01*
X148287745Y-88458139D01*
X148533864Y-88384005D01*
X148726965Y-87846777D01*
X148699778Y-87276546D01*
X148533864Y-86875995D01*
X148290262Y-86802619D01*
X160324613Y-86802619D01*
X160664155Y-87624372D01*
X161292321Y-88253636D01*
X162113481Y-88594611D01*
X163002619Y-88595387D01*
X163824372Y-88255845D01*
X164453636Y-87627679D01*
X164794611Y-86806519D01*
X164795387Y-85917381D01*
X164455845Y-85095628D01*
X163827679Y-84466364D01*
X163006519Y-84125389D01*
X162117381Y-84124613D01*
X161295628Y-84464155D01*
X160666364Y-85092321D01*
X160325389Y-85913481D01*
X160324613Y-86802619D01*
X148290262Y-86802619D01*
X148287745Y-86801861D01*
X147459605Y-87630000D01*
X147100395Y-87630000D01*
X146272255Y-86801861D01*
X146026136Y-86875995D01*
X146023804Y-86882483D01*
X145997243Y-86818200D01*
X145801640Y-86622255D01*
X146451861Y-86622255D01*
X147280000Y-87450395D01*
X148108139Y-86622255D01*
X148034005Y-86376136D01*
X147496777Y-86183035D01*
X146926546Y-86210222D01*
X146525995Y-86376136D01*
X146451861Y-86622255D01*
X145801640Y-86622255D01*
X145593923Y-86414176D01*
X145066691Y-86195250D01*
X144495813Y-86194752D01*
X143968200Y-86412757D01*
X143564176Y-86816077D01*
X143345250Y-87343309D01*
X143344752Y-87914187D01*
X143562757Y-88441800D01*
X143893380Y-88773000D01*
X71247000Y-88773000D01*
X71247000Y-86070213D01*
X88099392Y-86070213D01*
X88168857Y-86312397D01*
X88692302Y-86499144D01*
X89247368Y-86471362D01*
X89584090Y-86331887D01*
X114135000Y-86331887D01*
X114135000Y-86388113D01*
X114244233Y-86937264D01*
X114555302Y-87402811D01*
X115020849Y-87713880D01*
X115570000Y-87823113D01*
X116119151Y-87713880D01*
X116584698Y-87402811D01*
X116895767Y-86937264D01*
X117005000Y-86388113D01*
X117005000Y-86331887D01*
X117945000Y-86331887D01*
X117945000Y-86388113D01*
X118054233Y-86937264D01*
X118365302Y-87402811D01*
X118830849Y-87713880D01*
X119380000Y-87823113D01*
X119929151Y-87713880D01*
X120394698Y-87402811D01*
X120705767Y-86937264D01*
X120815000Y-86388113D01*
X120815000Y-86331887D01*
X120705767Y-85782736D01*
X120394698Y-85317189D01*
X119929151Y-85006120D01*
X119380000Y-84896887D01*
X118830849Y-85006120D01*
X118365302Y-85317189D01*
X118054233Y-85782736D01*
X117945000Y-86331887D01*
X117005000Y-86331887D01*
X116895767Y-85782736D01*
X116584698Y-85317189D01*
X116119151Y-85006120D01*
X115570000Y-84896887D01*
X115020849Y-85006120D01*
X114555302Y-85317189D01*
X114244233Y-85782736D01*
X114135000Y-86331887D01*
X89584090Y-86331887D01*
X89631143Y-86312397D01*
X89700608Y-86070213D01*
X88900000Y-85269605D01*
X88099392Y-86070213D01*
X71247000Y-86070213D01*
X71247000Y-84882302D01*
X87490856Y-84882302D01*
X87518638Y-85437368D01*
X87677603Y-85821143D01*
X87919787Y-85890608D01*
X88720395Y-85090000D01*
X89079605Y-85090000D01*
X89880213Y-85890608D01*
X90122397Y-85821143D01*
X90309144Y-85297698D01*
X90281362Y-84742632D01*
X90122397Y-84358857D01*
X89880213Y-84289392D01*
X89079605Y-85090000D01*
X88720395Y-85090000D01*
X87919787Y-84289392D01*
X87677603Y-84358857D01*
X87490856Y-84882302D01*
X71247000Y-84882302D01*
X71247000Y-82972815D01*
X72794630Y-82972815D01*
X73118980Y-83757800D01*
X73719041Y-84358909D01*
X74503459Y-84684628D01*
X75352815Y-84685370D01*
X76137800Y-84361020D01*
X76738909Y-83760959D01*
X77064628Y-82976541D01*
X77064631Y-82972815D01*
X80414630Y-82972815D01*
X80738980Y-83757800D01*
X81339041Y-84358909D01*
X82123459Y-84684628D01*
X82972815Y-84685370D01*
X83757800Y-84361020D01*
X84358909Y-83760959D01*
X84684628Y-82976541D01*
X84685370Y-82127185D01*
X84361020Y-81342200D01*
X83760959Y-80741091D01*
X82976541Y-80415372D01*
X82127185Y-80414630D01*
X81342200Y-80738980D01*
X80741091Y-81339041D01*
X80415372Y-82123459D01*
X80414630Y-82972815D01*
X77064631Y-82972815D01*
X77065370Y-82127185D01*
X76741020Y-81342200D01*
X76140959Y-80741091D01*
X75356541Y-80415372D01*
X74507185Y-80414630D01*
X73722200Y-80738980D01*
X73121091Y-81339041D01*
X72795372Y-82123459D01*
X72794630Y-82972815D01*
X71247000Y-82972815D01*
X71247000Y-80286661D01*
X87502758Y-80286661D01*
X87714990Y-80800303D01*
X88107630Y-81193629D01*
X88315512Y-81279949D01*
X88109697Y-81364990D01*
X87716371Y-81757630D01*
X87503243Y-82270900D01*
X87502758Y-82826661D01*
X87714990Y-83340303D01*
X88107630Y-83733629D01*
X88299727Y-83813395D01*
X88168857Y-83867603D01*
X88099392Y-84109787D01*
X88900000Y-84910395D01*
X89700608Y-84109787D01*
X89631143Y-83867603D01*
X89490682Y-83817491D01*
X89690303Y-83735010D01*
X90083629Y-83342370D01*
X90296757Y-82829100D01*
X90297242Y-82273339D01*
X90085010Y-81759697D01*
X89692370Y-81366371D01*
X89484488Y-81280051D01*
X89690303Y-81195010D01*
X90083629Y-80802370D01*
X90296757Y-80289100D01*
X90297000Y-80010000D01*
X91246887Y-80010000D01*
X91356120Y-80559151D01*
X91667189Y-81024698D01*
X92040336Y-81274027D01*
X91898200Y-81332757D01*
X91494176Y-81736077D01*
X91275250Y-82263309D01*
X91274752Y-82834187D01*
X91492757Y-83361800D01*
X91896077Y-83765824D01*
X92423309Y-83984750D01*
X92994187Y-83985248D01*
X93521800Y-83767243D01*
X93925824Y-83363923D01*
X94144750Y-82836691D01*
X94145000Y-82550000D01*
X101406887Y-82550000D01*
X101516120Y-83099151D01*
X101827189Y-83564698D01*
X102292736Y-83875767D01*
X102841887Y-83985000D01*
X102898113Y-83985000D01*
X103447264Y-83875767D01*
X103912811Y-83564698D01*
X104223880Y-83099151D01*
X104333113Y-82550000D01*
X104223880Y-82000849D01*
X103912811Y-81535302D01*
X103539664Y-81285973D01*
X103681800Y-81227243D01*
X104008944Y-80900669D01*
X104023106Y-80934943D01*
X104482637Y-81395278D01*
X105083352Y-81644716D01*
X105733795Y-81645284D01*
X106334943Y-81396894D01*
X106397197Y-81334749D01*
X106411673Y-81369698D01*
X106590301Y-81548327D01*
X106823690Y-81645000D01*
X107664250Y-81645000D01*
X107823000Y-81486250D01*
X107823000Y-80137000D01*
X108077000Y-80137000D01*
X108077000Y-81486250D01*
X108235750Y-81645000D01*
X109076310Y-81645000D01*
X109309699Y-81548327D01*
X109488327Y-81369698D01*
X109585000Y-81136309D01*
X109585000Y-80295750D01*
X109426250Y-80137000D01*
X108077000Y-80137000D01*
X107823000Y-80137000D01*
X107803000Y-80137000D01*
X107803000Y-79883000D01*
X107823000Y-79883000D01*
X107823000Y-78533750D01*
X108077000Y-78533750D01*
X108077000Y-79883000D01*
X109426250Y-79883000D01*
X109585000Y-79724250D01*
X109585000Y-78883691D01*
X109525482Y-78740000D01*
X121675907Y-78740000D01*
X121788946Y-79308285D01*
X122110853Y-79790054D01*
X122440026Y-80010000D01*
X122110853Y-80229946D01*
X121788946Y-80711715D01*
X121675907Y-81280000D01*
X121788946Y-81848285D01*
X122110853Y-82330054D01*
X122440026Y-82550000D01*
X122110853Y-82769946D01*
X121788946Y-83251715D01*
X121675907Y-83820000D01*
X121788946Y-84388285D01*
X122110853Y-84870054D01*
X122592622Y-85191961D01*
X123160907Y-85305000D01*
X123219093Y-85305000D01*
X123787378Y-85191961D01*
X124269147Y-84870054D01*
X124591054Y-84388285D01*
X124704093Y-83820000D01*
X124591054Y-83251715D01*
X124269147Y-82769946D01*
X123939974Y-82550000D01*
X124269147Y-82330054D01*
X124591054Y-81848285D01*
X124704093Y-81280000D01*
X124591054Y-80711715D01*
X124269147Y-80229946D01*
X123939974Y-80010000D01*
X124269147Y-79790054D01*
X124591054Y-79308285D01*
X124704093Y-78740000D01*
X126755907Y-78740000D01*
X126868946Y-79308285D01*
X127190853Y-79790054D01*
X127520026Y-80010000D01*
X127190853Y-80229946D01*
X126868946Y-80711715D01*
X126755907Y-81280000D01*
X126868946Y-81848285D01*
X127190853Y-82330054D01*
X127520026Y-82550000D01*
X127190853Y-82769946D01*
X126868946Y-83251715D01*
X126755907Y-83820000D01*
X126868946Y-84388285D01*
X127190853Y-84870054D01*
X127672622Y-85191961D01*
X128240907Y-85305000D01*
X128299093Y-85305000D01*
X128867378Y-85191961D01*
X129349147Y-84870054D01*
X129671054Y-84388285D01*
X129784093Y-83820000D01*
X129671054Y-83251715D01*
X129349147Y-82769946D01*
X129019974Y-82550000D01*
X129349147Y-82330054D01*
X129671054Y-81848285D01*
X129784093Y-81280000D01*
X129671054Y-80711715D01*
X129349147Y-80229946D01*
X129019974Y-80010000D01*
X129349147Y-79790054D01*
X129671054Y-79308285D01*
X129784093Y-78740000D01*
X129671054Y-78171715D01*
X129349147Y-77689946D01*
X129305223Y-77660597D01*
X129479698Y-77588327D01*
X129658327Y-77409699D01*
X129755000Y-77176310D01*
X129755000Y-76485750D01*
X129596250Y-76327000D01*
X128397000Y-76327000D01*
X128397000Y-76347000D01*
X128143000Y-76347000D01*
X128143000Y-76327000D01*
X126943750Y-76327000D01*
X126785000Y-76485750D01*
X126785000Y-77176310D01*
X126881673Y-77409699D01*
X127060302Y-77588327D01*
X127234777Y-77660597D01*
X127190853Y-77689946D01*
X126868946Y-78171715D01*
X126755907Y-78740000D01*
X124704093Y-78740000D01*
X124591054Y-78171715D01*
X124269147Y-77689946D01*
X124225223Y-77660597D01*
X124399698Y-77588327D01*
X124578327Y-77409699D01*
X124675000Y-77176310D01*
X124675000Y-76485750D01*
X124516250Y-76327000D01*
X123317000Y-76327000D01*
X123317000Y-76347000D01*
X123063000Y-76347000D01*
X123063000Y-76327000D01*
X121863750Y-76327000D01*
X121705000Y-76485750D01*
X121705000Y-77176310D01*
X121801673Y-77409699D01*
X121980302Y-77588327D01*
X122154777Y-77660597D01*
X122110853Y-77689946D01*
X121788946Y-78171715D01*
X121675907Y-78740000D01*
X109525482Y-78740000D01*
X109488327Y-78650302D01*
X109309699Y-78471673D01*
X109076310Y-78375000D01*
X108235750Y-78375000D01*
X108077000Y-78533750D01*
X107823000Y-78533750D01*
X107664250Y-78375000D01*
X106823690Y-78375000D01*
X106590301Y-78471673D01*
X106411673Y-78650302D01*
X106397370Y-78684834D01*
X106337363Y-78624722D01*
X105736648Y-78375284D01*
X105086205Y-78374716D01*
X104485057Y-78623106D01*
X104024722Y-79082637D01*
X104009199Y-79120020D01*
X103683923Y-78794176D01*
X103156691Y-78575250D01*
X102585813Y-78574752D01*
X102058200Y-78792757D01*
X101654176Y-79196077D01*
X101435250Y-79723309D01*
X101434752Y-80294187D01*
X101652757Y-80821800D01*
X102056077Y-81225824D01*
X102200564Y-81285820D01*
X101827189Y-81535302D01*
X101516120Y-82000849D01*
X101406887Y-82550000D01*
X94145000Y-82550000D01*
X94145248Y-82265813D01*
X93927243Y-81738200D01*
X93523923Y-81334176D01*
X93379436Y-81274180D01*
X93752811Y-81024698D01*
X94063880Y-80559151D01*
X94173113Y-80010000D01*
X94063880Y-79460849D01*
X93752811Y-78995302D01*
X93287264Y-78684233D01*
X92738113Y-78575000D01*
X92681887Y-78575000D01*
X92132736Y-78684233D01*
X91667189Y-78995302D01*
X91356120Y-79460849D01*
X91246887Y-80010000D01*
X90297000Y-80010000D01*
X90297242Y-79733339D01*
X90085010Y-79219697D01*
X89692370Y-78826371D01*
X89179100Y-78613243D01*
X88623339Y-78612758D01*
X88109697Y-78824990D01*
X87716371Y-79217630D01*
X87503243Y-79730900D01*
X87502758Y-80286661D01*
X71247000Y-80286661D01*
X71247000Y-76943223D01*
X90038183Y-76943223D01*
X90136782Y-77210025D01*
X90746322Y-77436461D01*
X91396117Y-77412401D01*
X91884698Y-77210025D01*
X91983297Y-76943223D01*
X91010740Y-75970665D01*
X90038183Y-76943223D01*
X71247000Y-76943223D01*
X71247000Y-75526642D01*
X89365339Y-75526642D01*
X89389399Y-76176437D01*
X89591775Y-76665018D01*
X89858577Y-76763617D01*
X90831135Y-75791060D01*
X89858577Y-74818503D01*
X89591775Y-74917102D01*
X89365339Y-75526642D01*
X71247000Y-75526642D01*
X71247000Y-74638897D01*
X90038183Y-74638897D01*
X91010740Y-75611455D01*
X91024883Y-75597313D01*
X91204488Y-75776918D01*
X91190345Y-75791060D01*
X92162903Y-76763617D01*
X92429705Y-76665018D01*
X92463239Y-76574747D01*
X93095377Y-76551341D01*
X93257501Y-76484187D01*
X114134752Y-76484187D01*
X114352757Y-77011800D01*
X114756077Y-77415824D01*
X115283309Y-77634750D01*
X115854187Y-77635248D01*
X116381800Y-77417243D01*
X116785824Y-77013923D01*
X117004750Y-76486691D01*
X117004752Y-76484187D01*
X117944752Y-76484187D01*
X118162757Y-77011800D01*
X118566077Y-77415824D01*
X119093309Y-77634750D01*
X119664187Y-77635248D01*
X120191800Y-77417243D01*
X120595824Y-77013923D01*
X120814750Y-76486691D01*
X120815248Y-75915813D01*
X120597243Y-75388200D01*
X120433020Y-75223690D01*
X121705000Y-75223690D01*
X121705000Y-75914250D01*
X121863750Y-76073000D01*
X123063000Y-76073000D01*
X123063000Y-74873750D01*
X123317000Y-74873750D01*
X123317000Y-76073000D01*
X124516250Y-76073000D01*
X124675000Y-75914250D01*
X124675000Y-75223690D01*
X126785000Y-75223690D01*
X126785000Y-75914250D01*
X126943750Y-76073000D01*
X128143000Y-76073000D01*
X128143000Y-74873750D01*
X128397000Y-74873750D01*
X128397000Y-76073000D01*
X129596250Y-76073000D01*
X129755000Y-75914250D01*
X129755000Y-75223690D01*
X129658327Y-74990301D01*
X129479698Y-74811673D01*
X129246309Y-74715000D01*
X128555750Y-74715000D01*
X128397000Y-74873750D01*
X128143000Y-74873750D01*
X127984250Y-74715000D01*
X127293691Y-74715000D01*
X127060302Y-74811673D01*
X126881673Y-74990301D01*
X126785000Y-75223690D01*
X124675000Y-75223690D01*
X124578327Y-74990301D01*
X124399698Y-74811673D01*
X124166309Y-74715000D01*
X123475750Y-74715000D01*
X123317000Y-74873750D01*
X123063000Y-74873750D01*
X122904250Y-74715000D01*
X122213691Y-74715000D01*
X121980302Y-74811673D01*
X121801673Y-74990301D01*
X121705000Y-75223690D01*
X120433020Y-75223690D01*
X120193923Y-74984176D01*
X119666691Y-74765250D01*
X119095813Y-74764752D01*
X118568200Y-74982757D01*
X118164176Y-75386077D01*
X117945250Y-75913309D01*
X117944752Y-76484187D01*
X117004752Y-76484187D01*
X117005248Y-75915813D01*
X116787243Y-75388200D01*
X116383923Y-74984176D01*
X116330000Y-74961785D01*
X116330000Y-73845167D01*
X124794838Y-73845167D01*
X124936883Y-74188943D01*
X125199673Y-74452192D01*
X125543201Y-74594838D01*
X125915167Y-74595162D01*
X126258943Y-74453117D01*
X126292118Y-74420000D01*
X134620000Y-74420000D01*
X134910839Y-74362148D01*
X135157401Y-74197401D01*
X135697405Y-73657397D01*
X135696887Y-73660000D01*
X135806120Y-74209151D01*
X136117189Y-74674698D01*
X136499275Y-74930000D01*
X136117189Y-75185302D01*
X135806120Y-75650849D01*
X135696887Y-76200000D01*
X135806120Y-76749151D01*
X136117189Y-77214698D01*
X136499275Y-77470000D01*
X136117189Y-77725302D01*
X135806120Y-78190849D01*
X135696887Y-78740000D01*
X135806120Y-79289151D01*
X136117189Y-79754698D01*
X136499275Y-80010000D01*
X136117189Y-80265302D01*
X135806120Y-80730849D01*
X135696887Y-81280000D01*
X135806120Y-81829151D01*
X136117189Y-82294698D01*
X136499275Y-82550000D01*
X136117189Y-82805302D01*
X135806120Y-83270849D01*
X135696887Y-83820000D01*
X135806120Y-84369151D01*
X136117189Y-84834698D01*
X136582736Y-85145767D01*
X137131887Y-85255000D01*
X137188113Y-85255000D01*
X137737264Y-85145767D01*
X138202811Y-84834698D01*
X138513880Y-84369151D01*
X138623113Y-83820000D01*
X138513880Y-83270849D01*
X138202811Y-82805302D01*
X137820725Y-82550000D01*
X138202811Y-82294698D01*
X138513880Y-81829151D01*
X138623113Y-81280000D01*
X138513880Y-80730849D01*
X138202811Y-80265302D01*
X137820725Y-80010000D01*
X138202811Y-79754698D01*
X138513880Y-79289151D01*
X138623113Y-78740000D01*
X138513880Y-78190849D01*
X138202811Y-77725302D01*
X137820725Y-77470000D01*
X138202811Y-77214698D01*
X138513880Y-76749151D01*
X138623113Y-76200000D01*
X138513880Y-75650849D01*
X138202811Y-75185302D01*
X137820725Y-74930000D01*
X138202811Y-74674698D01*
X138513880Y-74209151D01*
X138623113Y-73660000D01*
X138513880Y-73110849D01*
X138202811Y-72645302D01*
X137820725Y-72390000D01*
X138202811Y-72134698D01*
X138513880Y-71669151D01*
X138623113Y-71120000D01*
X138513880Y-70570849D01*
X138202811Y-70105302D01*
X137798297Y-69835014D01*
X138015134Y-69732389D01*
X138391041Y-69317423D01*
X138551904Y-68929039D01*
X138429915Y-68707000D01*
X137287000Y-68707000D01*
X137287000Y-68727000D01*
X137033000Y-68727000D01*
X137033000Y-68707000D01*
X135890085Y-68707000D01*
X135768096Y-68929039D01*
X135928959Y-69317423D01*
X136304866Y-69732389D01*
X136521703Y-69835014D01*
X136117189Y-70105302D01*
X135892408Y-70441710D01*
X135837243Y-70308200D01*
X135433923Y-69904176D01*
X134906691Y-69685250D01*
X134335813Y-69684752D01*
X133808200Y-69902757D01*
X133404176Y-70306077D01*
X133185250Y-70833309D01*
X133184752Y-71404187D01*
X133402757Y-71931800D01*
X133806077Y-72335824D01*
X134333309Y-72554750D01*
X134650172Y-72555026D01*
X134305198Y-72900000D01*
X126292463Y-72900000D01*
X126260327Y-72867808D01*
X125916799Y-72725162D01*
X125544833Y-72724838D01*
X125201057Y-72866883D01*
X124937808Y-73129673D01*
X124795162Y-73473201D01*
X124794838Y-73845167D01*
X116330000Y-73845167D01*
X116330000Y-72746890D01*
X121748524Y-72746890D01*
X121918355Y-73156924D01*
X122308642Y-73585183D01*
X122833108Y-73831486D01*
X123063000Y-73710819D01*
X123063000Y-72517000D01*
X123317000Y-72517000D01*
X123317000Y-73710819D01*
X123546892Y-73831486D01*
X124071358Y-73585183D01*
X124461645Y-73156924D01*
X124631476Y-72746890D01*
X124510155Y-72517000D01*
X123317000Y-72517000D01*
X123063000Y-72517000D01*
X121869845Y-72517000D01*
X121748524Y-72746890D01*
X116330000Y-72746890D01*
X116330000Y-67310000D01*
X121675907Y-67310000D01*
X121788946Y-67878285D01*
X122110853Y-68360054D01*
X122440026Y-68580000D01*
X122110853Y-68799946D01*
X121788946Y-69281715D01*
X121675907Y-69850000D01*
X121788946Y-70418285D01*
X122110853Y-70900054D01*
X122451553Y-71127702D01*
X122308642Y-71194817D01*
X121918355Y-71623076D01*
X121748524Y-72033110D01*
X121869845Y-72263000D01*
X123063000Y-72263000D01*
X123063000Y-72243000D01*
X123317000Y-72243000D01*
X123317000Y-72263000D01*
X124510155Y-72263000D01*
X124631476Y-72033110D01*
X124461645Y-71623076D01*
X124071358Y-71194817D01*
X123928447Y-71127702D01*
X124269147Y-70900054D01*
X124591054Y-70418285D01*
X124704093Y-69850000D01*
X124591054Y-69281715D01*
X124269147Y-68799946D01*
X123939974Y-68580000D01*
X124269147Y-68360054D01*
X124591054Y-67878285D01*
X124704093Y-67310000D01*
X124651928Y-67047745D01*
X128711861Y-67047745D01*
X128785995Y-67293864D01*
X129323223Y-67486965D01*
X129893454Y-67459778D01*
X130294005Y-67293864D01*
X130368139Y-67047745D01*
X129540000Y-66219605D01*
X128711861Y-67047745D01*
X124651928Y-67047745D01*
X124591054Y-66741715D01*
X124269147Y-66259946D01*
X124227548Y-66232150D01*
X124275317Y-66223162D01*
X124491441Y-66084090D01*
X124636431Y-65871890D01*
X124646286Y-65823223D01*
X128093035Y-65823223D01*
X128120222Y-66393454D01*
X128286136Y-66794005D01*
X128532255Y-66868139D01*
X129360395Y-66040000D01*
X128532255Y-65211861D01*
X128286136Y-65285995D01*
X128093035Y-65823223D01*
X124646286Y-65823223D01*
X124687440Y-65620000D01*
X124687440Y-64507745D01*
X128711861Y-64507745D01*
X128785995Y-64753864D01*
X128827709Y-64768858D01*
X128785995Y-64786136D01*
X128711861Y-65032255D01*
X129540000Y-65860395D01*
X130368139Y-65032255D01*
X130294005Y-64786136D01*
X130252291Y-64771142D01*
X130294005Y-64753864D01*
X130368139Y-64507745D01*
X129540000Y-63679605D01*
X128711861Y-64507745D01*
X124687440Y-64507745D01*
X124687440Y-63920000D01*
X124643162Y-63684683D01*
X124504090Y-63468559D01*
X124291890Y-63323569D01*
X124092656Y-63283223D01*
X128093035Y-63283223D01*
X128120222Y-63853454D01*
X128286136Y-64254005D01*
X128532255Y-64328139D01*
X129360395Y-63500000D01*
X129719605Y-63500000D01*
X130547745Y-64328139D01*
X130793864Y-64254005D01*
X130796196Y-64247517D01*
X130822757Y-64311800D01*
X131226077Y-64715824D01*
X131356215Y-64769862D01*
X131228200Y-64822757D01*
X130824176Y-65226077D01*
X130796577Y-65292544D01*
X130793864Y-65285995D01*
X130547745Y-65211861D01*
X129719605Y-66040000D01*
X130547745Y-66868139D01*
X130793864Y-66794005D01*
X130796196Y-66787517D01*
X130822757Y-66851800D01*
X131226077Y-67255824D01*
X131753309Y-67474750D01*
X132324187Y-67475248D01*
X132851800Y-67257243D01*
X133255824Y-66853923D01*
X133474750Y-66326691D01*
X133475248Y-65755813D01*
X133257243Y-65228200D01*
X132853923Y-64824176D01*
X132723785Y-64770138D01*
X132851800Y-64717243D01*
X133255824Y-64313923D01*
X133331151Y-64132516D01*
X133605302Y-64542811D01*
X134070849Y-64853880D01*
X134620000Y-64963113D01*
X135169151Y-64853880D01*
X135634698Y-64542811D01*
X135885336Y-64167706D01*
X136117189Y-64514698D01*
X136499275Y-64770000D01*
X136117189Y-65025302D01*
X135806120Y-65490849D01*
X135696887Y-66040000D01*
X135806120Y-66589151D01*
X136117189Y-67054698D01*
X136521703Y-67324986D01*
X136304866Y-67427611D01*
X135928959Y-67842577D01*
X135768096Y-68230961D01*
X135890085Y-68453000D01*
X137033000Y-68453000D01*
X137033000Y-68433000D01*
X137287000Y-68433000D01*
X137287000Y-68453000D01*
X138429915Y-68453000D01*
X138551904Y-68230961D01*
X138391041Y-67842577D01*
X138076332Y-67495167D01*
X140034838Y-67495167D01*
X140176883Y-67838943D01*
X140210000Y-67872118D01*
X140210000Y-70557537D01*
X140177808Y-70589673D01*
X140035162Y-70933201D01*
X140034838Y-71305167D01*
X140176883Y-71648943D01*
X140439673Y-71912192D01*
X140783201Y-72054838D01*
X141155167Y-72055162D01*
X141498943Y-71913117D01*
X141762192Y-71650327D01*
X141904838Y-71306799D01*
X141905162Y-70934833D01*
X141763117Y-70591057D01*
X141730000Y-70557882D01*
X141730000Y-68580000D01*
X143316887Y-68580000D01*
X143426120Y-69129151D01*
X143737189Y-69594698D01*
X144119275Y-69850000D01*
X143737189Y-70105302D01*
X143426120Y-70570849D01*
X143316887Y-71120000D01*
X143426120Y-71669151D01*
X143737189Y-72134698D01*
X144119275Y-72390000D01*
X143737189Y-72645302D01*
X143426120Y-73110849D01*
X143316887Y-73660000D01*
X143426120Y-74209151D01*
X143737189Y-74674698D01*
X144119275Y-74930000D01*
X143737189Y-75185302D01*
X143426120Y-75650849D01*
X143316887Y-76200000D01*
X143426120Y-76749151D01*
X143737189Y-77214698D01*
X144119275Y-77470000D01*
X143737189Y-77725302D01*
X143426120Y-78190849D01*
X143316887Y-78740000D01*
X143426120Y-79289151D01*
X143737189Y-79754698D01*
X144119275Y-80010000D01*
X143737189Y-80265302D01*
X143426120Y-80730849D01*
X143316887Y-81280000D01*
X143426120Y-81829151D01*
X143737189Y-82294698D01*
X144119275Y-82550000D01*
X143737189Y-82805302D01*
X143426120Y-83270849D01*
X143316887Y-83820000D01*
X143426120Y-84369151D01*
X143737189Y-84834698D01*
X144202736Y-85145767D01*
X144751887Y-85255000D01*
X144808113Y-85255000D01*
X145357264Y-85145767D01*
X145822811Y-84834698D01*
X146054664Y-84487706D01*
X146305302Y-84862811D01*
X146770849Y-85173880D01*
X147320000Y-85283113D01*
X147869151Y-85173880D01*
X148334698Y-84862811D01*
X148645767Y-84397264D01*
X148755000Y-83848113D01*
X148755000Y-83791887D01*
X148645767Y-83242736D01*
X148334698Y-82777189D01*
X147869151Y-82466120D01*
X147320000Y-82356887D01*
X146770849Y-82466120D01*
X146305302Y-82777189D01*
X146054664Y-83152294D01*
X145822811Y-82805302D01*
X145440725Y-82550000D01*
X145822811Y-82294698D01*
X146133880Y-81829151D01*
X146243113Y-81280000D01*
X146133880Y-80730849D01*
X145822811Y-80265302D01*
X145440725Y-80010000D01*
X145822811Y-79754698D01*
X146133880Y-79289151D01*
X146243113Y-78740000D01*
X146133880Y-78190849D01*
X145822811Y-77725302D01*
X145440725Y-77470000D01*
X145822811Y-77214698D01*
X146133880Y-76749151D01*
X146243113Y-76200000D01*
X146133880Y-75650849D01*
X145822811Y-75185302D01*
X145440725Y-74930000D01*
X145822811Y-74674698D01*
X146133880Y-74209151D01*
X146243113Y-73660000D01*
X146133880Y-73110849D01*
X145822811Y-72645302D01*
X145440725Y-72390000D01*
X145822811Y-72134698D01*
X145854184Y-72087745D01*
X150301861Y-72087745D01*
X150375995Y-72333864D01*
X150913223Y-72526965D01*
X151483454Y-72499778D01*
X151884005Y-72333864D01*
X151958139Y-72087745D01*
X151130000Y-71259605D01*
X150301861Y-72087745D01*
X145854184Y-72087745D01*
X146133880Y-71669151D01*
X146243113Y-71120000D01*
X146192037Y-70863223D01*
X149683035Y-70863223D01*
X149710222Y-71433454D01*
X149876136Y-71834005D01*
X150122255Y-71908139D01*
X150950395Y-71080000D01*
X151309605Y-71080000D01*
X152137745Y-71908139D01*
X152383864Y-71834005D01*
X152576965Y-71296777D01*
X152549778Y-70726546D01*
X152383864Y-70325995D01*
X152137745Y-70251861D01*
X151309605Y-71080000D01*
X150950395Y-71080000D01*
X150122255Y-70251861D01*
X149876136Y-70325995D01*
X149683035Y-70863223D01*
X146192037Y-70863223D01*
X146133880Y-70570849D01*
X145822811Y-70105302D01*
X145440725Y-69850000D01*
X145822811Y-69594698D01*
X146047592Y-69258290D01*
X146102757Y-69391800D01*
X146506077Y-69795824D01*
X147033309Y-70014750D01*
X147604187Y-70015248D01*
X148131800Y-69797243D01*
X148535824Y-69393923D01*
X148754750Y-68866691D01*
X148754752Y-68864187D01*
X149694752Y-68864187D01*
X149912757Y-69391800D01*
X150316077Y-69795824D01*
X150382544Y-69823423D01*
X150375995Y-69826136D01*
X150301861Y-70072255D01*
X151130000Y-70900395D01*
X151958139Y-70072255D01*
X151884005Y-69826136D01*
X151877517Y-69823804D01*
X151941800Y-69797243D01*
X152345824Y-69393923D01*
X152564750Y-68866691D01*
X152565248Y-68295813D01*
X152542951Y-68241851D01*
X152714802Y-68070000D01*
X158750000Y-68070000D01*
X159040839Y-68012148D01*
X159287401Y-67847401D01*
X160557401Y-66577401D01*
X160722148Y-66330840D01*
X160780000Y-66040000D01*
X160780000Y-62544802D01*
X161414321Y-61910481D01*
X161480853Y-62010054D01*
X161810026Y-62230000D01*
X161480853Y-62449946D01*
X161158946Y-62931715D01*
X161045907Y-63500000D01*
X161158946Y-64068285D01*
X161480853Y-64550054D01*
X161810026Y-64770000D01*
X161480853Y-64989946D01*
X161158946Y-65471715D01*
X161045907Y-66040000D01*
X161158946Y-66608285D01*
X161480853Y-67090054D01*
X161810026Y-67310000D01*
X161480853Y-67529946D01*
X161158946Y-68011715D01*
X161045907Y-68580000D01*
X161158946Y-69148285D01*
X161480853Y-69630054D01*
X161810026Y-69850000D01*
X161480853Y-70069946D01*
X161158946Y-70551715D01*
X161045907Y-71120000D01*
X161158946Y-71688285D01*
X161480853Y-72170054D01*
X161810026Y-72390000D01*
X161480853Y-72609946D01*
X161158946Y-73091715D01*
X161045907Y-73660000D01*
X161158946Y-74228285D01*
X161480853Y-74710054D01*
X161810026Y-74930000D01*
X161480853Y-75149946D01*
X161158946Y-75631715D01*
X161045907Y-76200000D01*
X161158946Y-76768285D01*
X161480853Y-77250054D01*
X161810026Y-77470000D01*
X161480853Y-77689946D01*
X161158946Y-78171715D01*
X161045907Y-78740000D01*
X161158946Y-79308285D01*
X161480853Y-79790054D01*
X161522452Y-79817850D01*
X161474683Y-79826838D01*
X161258559Y-79965910D01*
X161113569Y-80178110D01*
X161062560Y-80430000D01*
X161062560Y-82130000D01*
X161106838Y-82365317D01*
X161245910Y-82581441D01*
X161458110Y-82726431D01*
X161710000Y-82777440D01*
X163410000Y-82777440D01*
X163645317Y-82733162D01*
X163861441Y-82594090D01*
X164006431Y-82381890D01*
X164057440Y-82130000D01*
X164057440Y-80430000D01*
X164013162Y-80194683D01*
X163874090Y-79978559D01*
X163661890Y-79833569D01*
X163594459Y-79819914D01*
X163639147Y-79790054D01*
X163961054Y-79308285D01*
X164074093Y-78740000D01*
X163961054Y-78171715D01*
X163639147Y-77689946D01*
X163309974Y-77470000D01*
X163639147Y-77250054D01*
X163961054Y-76768285D01*
X164074093Y-76200000D01*
X163961054Y-75631715D01*
X163639147Y-75149946D01*
X163309974Y-74930000D01*
X163639147Y-74710054D01*
X163961054Y-74228285D01*
X164074093Y-73660000D01*
X163961054Y-73091715D01*
X163639147Y-72609946D01*
X163309974Y-72390000D01*
X163639147Y-72170054D01*
X163961054Y-71688285D01*
X164074093Y-71120000D01*
X163961054Y-70551715D01*
X163639147Y-70069946D01*
X163309974Y-69850000D01*
X163639147Y-69630054D01*
X163961054Y-69148285D01*
X164074093Y-68580000D01*
X163961054Y-68011715D01*
X163639147Y-67529946D01*
X163309974Y-67310000D01*
X163639147Y-67090054D01*
X163961054Y-66608285D01*
X164074093Y-66040000D01*
X163961054Y-65471715D01*
X163639147Y-64989946D01*
X163309974Y-64770000D01*
X163639147Y-64550054D01*
X163961054Y-64068285D01*
X164074093Y-63500000D01*
X163961054Y-62931715D01*
X163639147Y-62449946D01*
X163309974Y-62230000D01*
X163639147Y-62010054D01*
X163961054Y-61528285D01*
X164074093Y-60960000D01*
X163961054Y-60391715D01*
X163639147Y-59909946D01*
X163298447Y-59682298D01*
X163441358Y-59615183D01*
X163831645Y-59186924D01*
X164001476Y-58776890D01*
X163880155Y-58547000D01*
X162687000Y-58547000D01*
X162687000Y-58567000D01*
X162433000Y-58567000D01*
X162433000Y-58547000D01*
X161239845Y-58547000D01*
X161118524Y-58776890D01*
X161288355Y-59186924D01*
X161678642Y-59615183D01*
X161821553Y-59682298D01*
X161480853Y-59909946D01*
X161286593Y-60200678D01*
X160999160Y-60257852D01*
X160752599Y-60422599D01*
X159482599Y-61692599D01*
X159317852Y-61939161D01*
X159260000Y-62230000D01*
X159260000Y-65725198D01*
X158435198Y-66550000D01*
X152400000Y-66550000D01*
X152109160Y-66607852D01*
X151862599Y-66772599D01*
X151468454Y-67166744D01*
X151416691Y-67145250D01*
X150845813Y-67144752D01*
X150318200Y-67362757D01*
X149914176Y-67766077D01*
X149695250Y-68293309D01*
X149694752Y-68864187D01*
X148754752Y-68864187D01*
X148755248Y-68295813D01*
X148537243Y-67768200D01*
X148133923Y-67364176D01*
X147606691Y-67145250D01*
X147035813Y-67144752D01*
X146508200Y-67362757D01*
X146104176Y-67766077D01*
X146047755Y-67901954D01*
X145822811Y-67565302D01*
X145418297Y-67295014D01*
X145635134Y-67192389D01*
X146011041Y-66777423D01*
X146171904Y-66389039D01*
X146049915Y-66167000D01*
X144907000Y-66167000D01*
X144907000Y-66187000D01*
X144653000Y-66187000D01*
X144653000Y-66167000D01*
X143510085Y-66167000D01*
X143388096Y-66389039D01*
X143548959Y-66777423D01*
X143924866Y-67192389D01*
X144141703Y-67295014D01*
X143737189Y-67565302D01*
X143426120Y-68030849D01*
X143316887Y-68580000D01*
X141730000Y-68580000D01*
X141730000Y-67872463D01*
X141762192Y-67840327D01*
X141904838Y-67496799D01*
X141905162Y-67124833D01*
X141763117Y-66781057D01*
X141500327Y-66517808D01*
X141156799Y-66375162D01*
X140784833Y-66374838D01*
X140441057Y-66516883D01*
X140177808Y-66779673D01*
X140035162Y-67123201D01*
X140034838Y-67495167D01*
X138076332Y-67495167D01*
X138015134Y-67427611D01*
X137798297Y-67324986D01*
X138202811Y-67054698D01*
X138513880Y-66589151D01*
X138623113Y-66040000D01*
X138513880Y-65490849D01*
X138202811Y-65025302D01*
X137820725Y-64770000D01*
X138202811Y-64514698D01*
X138513880Y-64049151D01*
X138623113Y-63500000D01*
X138513880Y-62950849D01*
X138202811Y-62485302D01*
X137820725Y-62230000D01*
X138202811Y-61974698D01*
X138513880Y-61509151D01*
X138623113Y-60960000D01*
X138513880Y-60410849D01*
X138202811Y-59945302D01*
X137820725Y-59690000D01*
X138202811Y-59434698D01*
X138513880Y-58969151D01*
X138623113Y-58420000D01*
X138513880Y-57870849D01*
X138202811Y-57405302D01*
X137820725Y-57150000D01*
X138202811Y-56894698D01*
X138513880Y-56429151D01*
X138623113Y-55880000D01*
X138513880Y-55330849D01*
X138202811Y-54865302D01*
X137820725Y-54610000D01*
X138202811Y-54354698D01*
X138513880Y-53889151D01*
X138623113Y-53340000D01*
X138513880Y-52790849D01*
X138202811Y-52325302D01*
X137820725Y-52070000D01*
X138202811Y-51814698D01*
X138513880Y-51349151D01*
X138623113Y-50800000D01*
X143316887Y-50800000D01*
X143426120Y-51349151D01*
X143737189Y-51814698D01*
X144119275Y-52070000D01*
X143737189Y-52325302D01*
X143426120Y-52790849D01*
X143316887Y-53340000D01*
X143426120Y-53889151D01*
X143737189Y-54354698D01*
X144119275Y-54610000D01*
X143737189Y-54865302D01*
X143426120Y-55330849D01*
X143316887Y-55880000D01*
X143426120Y-56429151D01*
X143737189Y-56894698D01*
X144119275Y-57150000D01*
X143737189Y-57405302D01*
X143426120Y-57870849D01*
X143316887Y-58420000D01*
X143426120Y-58969151D01*
X143737189Y-59434698D01*
X144119275Y-59690000D01*
X143737189Y-59945302D01*
X143426120Y-60410849D01*
X143316887Y-60960000D01*
X143426120Y-61509151D01*
X143737189Y-61974698D01*
X144119275Y-62230000D01*
X143737189Y-62485302D01*
X143426120Y-62950849D01*
X143316887Y-63500000D01*
X143426120Y-64049151D01*
X143737189Y-64514698D01*
X144141703Y-64784986D01*
X143924866Y-64887611D01*
X143548959Y-65302577D01*
X143388096Y-65690961D01*
X143510085Y-65913000D01*
X144653000Y-65913000D01*
X144653000Y-65893000D01*
X144907000Y-65893000D01*
X144907000Y-65913000D01*
X146049915Y-65913000D01*
X146171904Y-65690961D01*
X146011041Y-65302577D01*
X145687428Y-64945338D01*
X147204190Y-64945338D01*
X147414686Y-65454777D01*
X147804113Y-65844884D01*
X148313184Y-66056269D01*
X148864398Y-66056750D01*
X149373837Y-65846254D01*
X149763944Y-65456827D01*
X149931134Y-65054187D01*
X150964752Y-65054187D01*
X151182757Y-65581800D01*
X151586077Y-65985824D01*
X152113309Y-66204750D01*
X152684187Y-66205248D01*
X153211800Y-65987243D01*
X153421663Y-65777745D01*
X154071861Y-65777745D01*
X154145995Y-66023864D01*
X154683223Y-66216965D01*
X155253454Y-66189778D01*
X155654005Y-66023864D01*
X155728139Y-65777745D01*
X154900000Y-64949605D01*
X154071861Y-65777745D01*
X153421663Y-65777745D01*
X153615824Y-65583923D01*
X153643423Y-65517456D01*
X153646136Y-65524005D01*
X153892255Y-65598139D01*
X154720395Y-64770000D01*
X155079605Y-64770000D01*
X155907745Y-65598139D01*
X156153864Y-65524005D01*
X156346965Y-64986777D01*
X156319778Y-64416546D01*
X156153864Y-64015995D01*
X155907745Y-63941861D01*
X155079605Y-64770000D01*
X154720395Y-64770000D01*
X153892255Y-63941861D01*
X153646136Y-64015995D01*
X153643804Y-64022483D01*
X153617243Y-63958200D01*
X153421640Y-63762255D01*
X154071861Y-63762255D01*
X154900000Y-64590395D01*
X155728139Y-63762255D01*
X155654005Y-63516136D01*
X155116777Y-63323035D01*
X154546546Y-63350222D01*
X154145995Y-63516136D01*
X154071861Y-63762255D01*
X153421640Y-63762255D01*
X153213923Y-63554176D01*
X152686691Y-63335250D01*
X152115813Y-63334752D01*
X151588200Y-63552757D01*
X151184176Y-63956077D01*
X150965250Y-64483309D01*
X150964752Y-65054187D01*
X149931134Y-65054187D01*
X149975329Y-64947756D01*
X149975810Y-64396542D01*
X149765314Y-63887103D01*
X149375887Y-63496996D01*
X148866816Y-63285611D01*
X148315602Y-63285130D01*
X147806163Y-63495626D01*
X147416056Y-63885053D01*
X147204671Y-64394124D01*
X147204190Y-64945338D01*
X145687428Y-64945338D01*
X145635134Y-64887611D01*
X145418297Y-64784986D01*
X145822811Y-64514698D01*
X146133880Y-64049151D01*
X146243113Y-63500000D01*
X146133880Y-62950849D01*
X145822811Y-62485302D01*
X145440725Y-62230000D01*
X145822811Y-61974698D01*
X146133880Y-61509151D01*
X146243113Y-60960000D01*
X146133880Y-60410849D01*
X145901761Y-60063458D01*
X147204190Y-60063458D01*
X147414686Y-60572897D01*
X147804113Y-60963004D01*
X148313184Y-61174389D01*
X148864398Y-61174870D01*
X149373837Y-60964374D01*
X149763944Y-60574947D01*
X149975329Y-60065876D01*
X149975409Y-59974187D01*
X150964752Y-59974187D01*
X151182757Y-60501800D01*
X151586077Y-60905824D01*
X152113309Y-61124750D01*
X152684187Y-61125248D01*
X153211800Y-60907243D01*
X153421663Y-60697745D01*
X154071861Y-60697745D01*
X154145995Y-60943864D01*
X154683223Y-61136965D01*
X155253454Y-61109778D01*
X155654005Y-60943864D01*
X155728139Y-60697745D01*
X154900000Y-59869605D01*
X154071861Y-60697745D01*
X153421663Y-60697745D01*
X153615824Y-60503923D01*
X153643423Y-60437456D01*
X153646136Y-60444005D01*
X153892255Y-60518139D01*
X154720395Y-59690000D01*
X155079605Y-59690000D01*
X155907745Y-60518139D01*
X156153864Y-60444005D01*
X156346965Y-59906777D01*
X156319778Y-59336546D01*
X156153864Y-58935995D01*
X155907745Y-58861861D01*
X155079605Y-59690000D01*
X154720395Y-59690000D01*
X153892255Y-58861861D01*
X153646136Y-58935995D01*
X153643804Y-58942483D01*
X153617243Y-58878200D01*
X153421640Y-58682255D01*
X154071861Y-58682255D01*
X154900000Y-59510395D01*
X155728139Y-58682255D01*
X155654005Y-58436136D01*
X155116777Y-58243035D01*
X154546546Y-58270222D01*
X154145995Y-58436136D01*
X154071861Y-58682255D01*
X153421640Y-58682255D01*
X153213923Y-58474176D01*
X152686691Y-58255250D01*
X152115813Y-58254752D01*
X151588200Y-58472757D01*
X151184176Y-58876077D01*
X150965250Y-59403309D01*
X150964752Y-59974187D01*
X149975409Y-59974187D01*
X149975810Y-59514662D01*
X149765314Y-59005223D01*
X149375887Y-58615116D01*
X148866816Y-58403731D01*
X148315602Y-58403250D01*
X147806163Y-58613746D01*
X147416056Y-59003173D01*
X147204671Y-59512244D01*
X147204190Y-60063458D01*
X145901761Y-60063458D01*
X145822811Y-59945302D01*
X145440725Y-59690000D01*
X145822811Y-59434698D01*
X146133880Y-58969151D01*
X146243113Y-58420000D01*
X146172124Y-58063110D01*
X161118524Y-58063110D01*
X161239845Y-58293000D01*
X162433000Y-58293000D01*
X162433000Y-57099181D01*
X162687000Y-57099181D01*
X162687000Y-58293000D01*
X163880155Y-58293000D01*
X164001476Y-58063110D01*
X163831645Y-57653076D01*
X163441358Y-57224817D01*
X162916892Y-56978514D01*
X162687000Y-57099181D01*
X162433000Y-57099181D01*
X162203108Y-56978514D01*
X161678642Y-57224817D01*
X161288355Y-57653076D01*
X161118524Y-58063110D01*
X146172124Y-58063110D01*
X146133880Y-57870849D01*
X145822811Y-57405302D01*
X145440725Y-57150000D01*
X145822811Y-56894698D01*
X146133880Y-56429151D01*
X146243113Y-55880000D01*
X146133880Y-55330849D01*
X145822811Y-54865302D01*
X145440725Y-54610000D01*
X145822811Y-54354698D01*
X146133880Y-53889151D01*
X146243113Y-53340000D01*
X146133880Y-52790849D01*
X145822811Y-52325302D01*
X145440725Y-52070000D01*
X145822811Y-51814698D01*
X146133880Y-51349151D01*
X146243113Y-50800000D01*
X146133880Y-50250849D01*
X145822811Y-49785302D01*
X145357264Y-49474233D01*
X144808113Y-49365000D01*
X144751887Y-49365000D01*
X144202736Y-49474233D01*
X143737189Y-49785302D01*
X143426120Y-50250849D01*
X143316887Y-50800000D01*
X138623113Y-50800000D01*
X138513880Y-50250849D01*
X138202811Y-49785302D01*
X137737264Y-49474233D01*
X137188113Y-49365000D01*
X137131887Y-49365000D01*
X136582736Y-49474233D01*
X136117189Y-49785302D01*
X135806120Y-50250849D01*
X135696887Y-50800000D01*
X135806120Y-51349151D01*
X136117189Y-51814698D01*
X136499275Y-52070000D01*
X136117189Y-52325302D01*
X135806120Y-52790849D01*
X135696887Y-53340000D01*
X135806120Y-53889151D01*
X136117189Y-54354698D01*
X136499275Y-54610000D01*
X136117189Y-54865302D01*
X135806120Y-55330849D01*
X135696887Y-55880000D01*
X135806120Y-56429151D01*
X136117189Y-56894698D01*
X136499275Y-57150000D01*
X136117189Y-57405302D01*
X135806120Y-57870849D01*
X135696887Y-58420000D01*
X135806120Y-58969151D01*
X136117189Y-59434698D01*
X136499275Y-59690000D01*
X136117189Y-59945302D01*
X135806120Y-60410849D01*
X135696887Y-60960000D01*
X135806120Y-61509151D01*
X136117189Y-61974698D01*
X136499275Y-62230000D01*
X136117189Y-62485302D01*
X135885336Y-62832294D01*
X135634698Y-62457189D01*
X135169151Y-62146120D01*
X134620000Y-62036887D01*
X134070849Y-62146120D01*
X133605302Y-62457189D01*
X133331256Y-62867327D01*
X133257243Y-62688200D01*
X132853923Y-62284176D01*
X132326691Y-62065250D01*
X131755813Y-62064752D01*
X131228200Y-62282757D01*
X130824176Y-62686077D01*
X130796577Y-62752544D01*
X130793864Y-62745995D01*
X130547745Y-62671861D01*
X129719605Y-63500000D01*
X129360395Y-63500000D01*
X128532255Y-62671861D01*
X128286136Y-62745995D01*
X128093035Y-63283223D01*
X124092656Y-63283223D01*
X124040000Y-63272560D01*
X122340000Y-63272560D01*
X122104683Y-63316838D01*
X121888559Y-63455910D01*
X121743569Y-63668110D01*
X121692560Y-63920000D01*
X121692560Y-65620000D01*
X121736838Y-65855317D01*
X121875910Y-66071441D01*
X122088110Y-66216431D01*
X122155541Y-66230086D01*
X122110853Y-66259946D01*
X121788946Y-66741715D01*
X121675907Y-67310000D01*
X116330000Y-67310000D01*
X116330000Y-63442995D01*
X116584698Y-63272811D01*
X116895767Y-62807264D01*
X116958426Y-62492255D01*
X128711861Y-62492255D01*
X129540000Y-63320395D01*
X130368139Y-62492255D01*
X130294005Y-62246136D01*
X129756777Y-62053035D01*
X129186546Y-62080222D01*
X128785995Y-62246136D01*
X128711861Y-62492255D01*
X116958426Y-62492255D01*
X117005000Y-62258113D01*
X117005000Y-62201887D01*
X116895767Y-61652736D01*
X116584698Y-61187189D01*
X116119151Y-60876120D01*
X115570000Y-60766887D01*
X115020849Y-60876120D01*
X114555302Y-61187189D01*
X114244233Y-61652736D01*
X114135000Y-62201887D01*
X114135000Y-62258113D01*
X114244233Y-62807264D01*
X114555302Y-63272811D01*
X114810000Y-63442995D01*
X114810000Y-74961354D01*
X114758200Y-74982757D01*
X114354176Y-75386077D01*
X114135250Y-75913309D01*
X114134752Y-76484187D01*
X93257501Y-76484187D01*
X93583958Y-76348965D01*
X93682557Y-76082163D01*
X92710000Y-75109605D01*
X92695858Y-75123748D01*
X92516253Y-74944143D01*
X92530395Y-74930000D01*
X92889605Y-74930000D01*
X93862163Y-75902557D01*
X94128965Y-75803958D01*
X94355401Y-75194418D01*
X94331341Y-74544623D01*
X94128965Y-74056042D01*
X93862163Y-73957443D01*
X92889605Y-74930000D01*
X92530395Y-74930000D01*
X91557837Y-73957443D01*
X91291035Y-74056042D01*
X91257501Y-74146313D01*
X90625363Y-74169719D01*
X90136782Y-74372095D01*
X90038183Y-74638897D01*
X71247000Y-74638897D01*
X71247000Y-73777837D01*
X91737443Y-73777837D01*
X92710000Y-74750395D01*
X93682557Y-73777837D01*
X93583958Y-73511035D01*
X92974418Y-73284599D01*
X92324623Y-73308659D01*
X91836042Y-73511035D01*
X91737443Y-73777837D01*
X71247000Y-73777837D01*
X71247000Y-72860000D01*
X98882560Y-72860000D01*
X98882560Y-74460000D01*
X98926838Y-74695317D01*
X99065910Y-74911441D01*
X99278110Y-75056431D01*
X99530000Y-75107440D01*
X101130000Y-75107440D01*
X101365317Y-75063162D01*
X101581441Y-74924090D01*
X101726431Y-74711890D01*
X101735370Y-74667745D01*
X102001861Y-74667745D01*
X102075995Y-74913864D01*
X102613223Y-75106965D01*
X103183454Y-75079778D01*
X103584005Y-74913864D01*
X103658139Y-74667745D01*
X102830000Y-73839605D01*
X102001861Y-74667745D01*
X101735370Y-74667745D01*
X101774646Y-74473799D01*
X101822255Y-74488139D01*
X102650395Y-73660000D01*
X103009605Y-73660000D01*
X103837745Y-74488139D01*
X104083864Y-74414005D01*
X104276965Y-73876777D01*
X104249778Y-73306546D01*
X104083864Y-72905995D01*
X103837745Y-72831861D01*
X103009605Y-73660000D01*
X102650395Y-73660000D01*
X101822255Y-72831861D01*
X101774833Y-72846145D01*
X101738351Y-72652255D01*
X102001861Y-72652255D01*
X102830000Y-73480395D01*
X103658139Y-72652255D01*
X103584005Y-72406136D01*
X103046777Y-72213035D01*
X102476546Y-72240222D01*
X102075995Y-72406136D01*
X102001861Y-72652255D01*
X101738351Y-72652255D01*
X101733162Y-72624683D01*
X101594090Y-72408559D01*
X101381890Y-72263569D01*
X101130000Y-72212560D01*
X99530000Y-72212560D01*
X99294683Y-72256838D01*
X99078559Y-72395910D01*
X98933569Y-72608110D01*
X98882560Y-72860000D01*
X71247000Y-72860000D01*
X71247000Y-70173694D01*
X91075226Y-70173694D01*
X91323538Y-70774655D01*
X91782927Y-71234846D01*
X92383453Y-71484206D01*
X93033694Y-71484774D01*
X93634655Y-71236462D01*
X94094846Y-70777073D01*
X94158734Y-70623212D01*
X94732954Y-70623714D01*
X95333915Y-70375402D01*
X95794106Y-69916013D01*
X95930414Y-69587745D01*
X102041861Y-69587745D01*
X102115995Y-69833864D01*
X102653223Y-70026965D01*
X103223454Y-69999778D01*
X103624005Y-69833864D01*
X103698139Y-69587745D01*
X102870000Y-68759605D01*
X102041861Y-69587745D01*
X95930414Y-69587745D01*
X96043466Y-69315487D01*
X96044034Y-68665246D01*
X95919241Y-68363223D01*
X101423035Y-68363223D01*
X101450222Y-68933454D01*
X101616136Y-69334005D01*
X101862255Y-69408139D01*
X102690395Y-68580000D01*
X103049605Y-68580000D01*
X103877745Y-69408139D01*
X104123864Y-69334005D01*
X104126196Y-69327517D01*
X104152757Y-69391800D01*
X104556077Y-69795824D01*
X105083309Y-70014750D01*
X105654187Y-70015248D01*
X106181800Y-69797243D01*
X106585824Y-69393923D01*
X106804750Y-68866691D01*
X106805248Y-68295813D01*
X106587243Y-67768200D01*
X106183923Y-67364176D01*
X105656691Y-67145250D01*
X105085813Y-67144752D01*
X104558200Y-67362757D01*
X104154176Y-67766077D01*
X104126577Y-67832544D01*
X104123864Y-67825995D01*
X103877745Y-67751861D01*
X103049605Y-68580000D01*
X102690395Y-68580000D01*
X101862255Y-67751861D01*
X101616136Y-67825995D01*
X101423035Y-68363223D01*
X95919241Y-68363223D01*
X95795722Y-68064285D01*
X95336333Y-67604094D01*
X95259657Y-67572255D01*
X102041861Y-67572255D01*
X102870000Y-68400395D01*
X103698139Y-67572255D01*
X103624005Y-67326136D01*
X103086777Y-67133035D01*
X102516546Y-67160222D01*
X102115995Y-67326136D01*
X102041861Y-67572255D01*
X95259657Y-67572255D01*
X94735807Y-67354734D01*
X94085566Y-67354166D01*
X93484605Y-67602478D01*
X93024414Y-68061867D01*
X92960526Y-68215728D01*
X92386306Y-68215226D01*
X91785345Y-68463538D01*
X91325154Y-68922927D01*
X91075794Y-69523453D01*
X91075226Y-70173694D01*
X71247000Y-70173694D01*
X71247000Y-67652815D01*
X72794630Y-67652815D01*
X73118980Y-68437800D01*
X73719041Y-69038909D01*
X74503459Y-69364628D01*
X75352815Y-69365370D01*
X76137800Y-69041020D01*
X76738909Y-68440959D01*
X77064628Y-67656541D01*
X77064631Y-67652815D01*
X80414630Y-67652815D01*
X80738980Y-68437800D01*
X81339041Y-69038909D01*
X82123459Y-69364628D01*
X82972815Y-69365370D01*
X83757800Y-69041020D01*
X84358909Y-68440959D01*
X84684628Y-67656541D01*
X84685370Y-66807185D01*
X84361020Y-66022200D01*
X83760959Y-65421091D01*
X82976541Y-65095372D01*
X82127185Y-65094630D01*
X81342200Y-65418980D01*
X80741091Y-66019041D01*
X80415372Y-66803459D01*
X80414630Y-67652815D01*
X77064631Y-67652815D01*
X77065370Y-66807185D01*
X76741020Y-66022200D01*
X76140959Y-65421091D01*
X75356541Y-65095372D01*
X74507185Y-65094630D01*
X73722200Y-65418980D01*
X73121091Y-66019041D01*
X72795372Y-66803459D01*
X72794630Y-67652815D01*
X71247000Y-67652815D01*
X71247000Y-64770000D01*
X88502968Y-64770000D01*
X88627425Y-65395687D01*
X88981848Y-65926120D01*
X89512281Y-66280543D01*
X90137968Y-66405000D01*
X90202032Y-66405000D01*
X90827719Y-66280543D01*
X91358152Y-65926120D01*
X91712575Y-65395687D01*
X91837032Y-64770000D01*
X91712575Y-64144313D01*
X91462468Y-63770000D01*
X93602560Y-63770000D01*
X93602560Y-65770000D01*
X93646838Y-66005317D01*
X93785910Y-66221441D01*
X93998110Y-66366431D01*
X94250000Y-66417440D01*
X96250000Y-66417440D01*
X96485317Y-66373162D01*
X96701441Y-66234090D01*
X96846431Y-66021890D01*
X96897440Y-65770000D01*
X96897440Y-63870000D01*
X98782560Y-63870000D01*
X98782560Y-65670000D01*
X98826838Y-65905317D01*
X98965910Y-66121441D01*
X99178110Y-66266431D01*
X99430000Y-66317440D01*
X101230000Y-66317440D01*
X101465317Y-66273162D01*
X101681441Y-66134090D01*
X101826431Y-65921890D01*
X101836766Y-65870854D01*
X101962424Y-66007966D01*
X102505258Y-66261046D01*
X102743000Y-66140997D01*
X102743000Y-64897000D01*
X102723000Y-64897000D01*
X102723000Y-64643000D01*
X102743000Y-64643000D01*
X102743000Y-63399003D01*
X102997000Y-63399003D01*
X102997000Y-64643000D01*
X103017000Y-64643000D01*
X103017000Y-64897000D01*
X102997000Y-64897000D01*
X102997000Y-66140997D01*
X103234742Y-66261046D01*
X103777576Y-66007966D01*
X104135499Y-65617418D01*
X104294519Y-65855409D01*
X104792509Y-66188155D01*
X105379928Y-66305000D01*
X105440072Y-66305000D01*
X106027491Y-66188155D01*
X106525481Y-65855409D01*
X106858227Y-65357419D01*
X106975072Y-64770000D01*
X106858227Y-64182581D01*
X106525481Y-63684591D01*
X106027491Y-63351845D01*
X105440072Y-63235000D01*
X105379928Y-63235000D01*
X104792509Y-63351845D01*
X104294519Y-63684591D01*
X104135499Y-63922582D01*
X103777576Y-63532034D01*
X103234742Y-63278954D01*
X102997000Y-63399003D01*
X102743000Y-63399003D01*
X102505258Y-63278954D01*
X101962424Y-63532034D01*
X101839156Y-63666538D01*
X101833162Y-63634683D01*
X101694090Y-63418559D01*
X101481890Y-63273569D01*
X101230000Y-63222560D01*
X99430000Y-63222560D01*
X99194683Y-63266838D01*
X98978559Y-63405910D01*
X98833569Y-63618110D01*
X98782560Y-63870000D01*
X96897440Y-63870000D01*
X96897440Y-63770000D01*
X96853162Y-63534683D01*
X96714090Y-63318559D01*
X96501890Y-63173569D01*
X96250000Y-63122560D01*
X94250000Y-63122560D01*
X94014683Y-63166838D01*
X93798559Y-63305910D01*
X93653569Y-63518110D01*
X93602560Y-63770000D01*
X91462468Y-63770000D01*
X91358152Y-63613880D01*
X90827719Y-63259457D01*
X90202032Y-63135000D01*
X90137968Y-63135000D01*
X89512281Y-63259457D01*
X88981848Y-63613880D01*
X88627425Y-64144313D01*
X88502968Y-64770000D01*
X71247000Y-64770000D01*
X71247000Y-62652815D01*
X72794630Y-62652815D01*
X73118980Y-63437800D01*
X73719041Y-64038909D01*
X74503459Y-64364628D01*
X75352815Y-64365370D01*
X76137800Y-64041020D01*
X76738909Y-63440959D01*
X77064628Y-62656541D01*
X77064631Y-62652815D01*
X80414630Y-62652815D01*
X80738980Y-63437800D01*
X81339041Y-64038909D01*
X82123459Y-64364628D01*
X82972815Y-64365370D01*
X83757800Y-64041020D01*
X84358909Y-63440959D01*
X84684628Y-62656541D01*
X84685025Y-62201887D01*
X109055000Y-62201887D01*
X109055000Y-62258113D01*
X109164233Y-62807264D01*
X109475302Y-63272811D01*
X109940849Y-63583880D01*
X110490000Y-63693113D01*
X111039151Y-63583880D01*
X111504698Y-63272811D01*
X111815767Y-62807264D01*
X111925000Y-62258113D01*
X111925000Y-62201887D01*
X111815767Y-61652736D01*
X111504698Y-61187189D01*
X111039151Y-60876120D01*
X110490000Y-60766887D01*
X109940849Y-60876120D01*
X109475302Y-61187189D01*
X109164233Y-61652736D01*
X109055000Y-62201887D01*
X84685025Y-62201887D01*
X84685370Y-61807185D01*
X84361020Y-61022200D01*
X83760959Y-60421091D01*
X82976541Y-60095372D01*
X82127185Y-60094630D01*
X81342200Y-60418980D01*
X80741091Y-61019041D01*
X80415372Y-61803459D01*
X80414630Y-62652815D01*
X77064631Y-62652815D01*
X77065370Y-61807185D01*
X76741020Y-61022200D01*
X76140959Y-60421091D01*
X75356541Y-60095372D01*
X74507185Y-60094630D01*
X73722200Y-60418980D01*
X73121091Y-61019041D01*
X72795372Y-61803459D01*
X72794630Y-62652815D01*
X71247000Y-62652815D01*
X71247000Y-60070434D01*
X88579876Y-60070434D01*
X88776598Y-60545385D01*
X89210006Y-61013505D01*
X89789565Y-61280133D01*
X90043000Y-61161319D01*
X90043000Y-59817000D01*
X90297000Y-59817000D01*
X90297000Y-61161319D01*
X90550435Y-61280133D01*
X91129994Y-61013505D01*
X91563402Y-60545385D01*
X91760124Y-60070434D01*
X91640777Y-59817000D01*
X90297000Y-59817000D01*
X90043000Y-59817000D01*
X88699223Y-59817000D01*
X88579876Y-60070434D01*
X71247000Y-60070434D01*
X71247000Y-59690000D01*
X93582968Y-59690000D01*
X93707425Y-60315687D01*
X94061848Y-60846120D01*
X94592281Y-61200543D01*
X95217968Y-61325000D01*
X95282032Y-61325000D01*
X95907719Y-61200543D01*
X96438152Y-60846120D01*
X96792575Y-60315687D01*
X96917032Y-59690000D01*
X96792575Y-59064313D01*
X96600526Y-58776890D01*
X121748524Y-58776890D01*
X121918355Y-59186924D01*
X122308642Y-59615183D01*
X122833108Y-59861486D01*
X123063000Y-59740819D01*
X123063000Y-58547000D01*
X123317000Y-58547000D01*
X123317000Y-59740819D01*
X123546892Y-59861486D01*
X124071358Y-59615183D01*
X124461645Y-59186924D01*
X124631476Y-58776890D01*
X124510155Y-58547000D01*
X123317000Y-58547000D01*
X123063000Y-58547000D01*
X121869845Y-58547000D01*
X121748524Y-58776890D01*
X96600526Y-58776890D01*
X96438152Y-58533880D01*
X95907719Y-58179457D01*
X95282032Y-58055000D01*
X95217968Y-58055000D01*
X94592281Y-58179457D01*
X94061848Y-58533880D01*
X93707425Y-59064313D01*
X93582968Y-59690000D01*
X71247000Y-59690000D01*
X71247000Y-57652815D01*
X72794630Y-57652815D01*
X73118980Y-58437800D01*
X73719041Y-59038909D01*
X74503459Y-59364628D01*
X75352815Y-59365370D01*
X76137800Y-59041020D01*
X76738909Y-58440959D01*
X77064628Y-57656541D01*
X77064631Y-57652815D01*
X80414630Y-57652815D01*
X80738980Y-58437800D01*
X81339041Y-59038909D01*
X82123459Y-59364628D01*
X82972815Y-59365370D01*
X83107870Y-59309566D01*
X88579876Y-59309566D01*
X88699223Y-59563000D01*
X90043000Y-59563000D01*
X90043000Y-58218681D01*
X90297000Y-58218681D01*
X90297000Y-59563000D01*
X91640777Y-59563000D01*
X91760124Y-59309566D01*
X91563402Y-58834615D01*
X91129994Y-58366495D01*
X90550435Y-58099867D01*
X90297000Y-58218681D01*
X90043000Y-58218681D01*
X89789565Y-58099867D01*
X89210006Y-58366495D01*
X88776598Y-58834615D01*
X88579876Y-59309566D01*
X83107870Y-59309566D01*
X83757800Y-59041020D01*
X84358909Y-58440959D01*
X84684628Y-57656541D01*
X84685370Y-56807185D01*
X84361020Y-56022200D01*
X83760959Y-55421091D01*
X82976541Y-55095372D01*
X82127185Y-55094630D01*
X81342200Y-55418980D01*
X80741091Y-56019041D01*
X80415372Y-56803459D01*
X80414630Y-57652815D01*
X77064631Y-57652815D01*
X77065370Y-56807185D01*
X76741020Y-56022200D01*
X76140959Y-55421091D01*
X75356541Y-55095372D01*
X74507185Y-55094630D01*
X73722200Y-55418980D01*
X73121091Y-56019041D01*
X72795372Y-56803459D01*
X72794630Y-57652815D01*
X71247000Y-57652815D01*
X71247000Y-52354187D01*
X109054752Y-52354187D01*
X109272757Y-52881800D01*
X109676077Y-53285824D01*
X110203309Y-53504750D01*
X110774187Y-53505248D01*
X111301800Y-53287243D01*
X111705824Y-52883923D01*
X111924750Y-52356691D01*
X111924752Y-52354187D01*
X114134752Y-52354187D01*
X114352757Y-52881800D01*
X114756077Y-53285824D01*
X115283309Y-53504750D01*
X115854187Y-53505248D01*
X116381800Y-53287243D01*
X116785824Y-52883923D01*
X117004750Y-52356691D01*
X117005248Y-51785813D01*
X116787243Y-51258200D01*
X116383923Y-50854176D01*
X116253453Y-50800000D01*
X121675907Y-50800000D01*
X121788946Y-51368285D01*
X122110853Y-51850054D01*
X122440026Y-52070000D01*
X122110853Y-52289946D01*
X121788946Y-52771715D01*
X121675907Y-53340000D01*
X121788946Y-53908285D01*
X122110853Y-54390054D01*
X122440026Y-54610000D01*
X122110853Y-54829946D01*
X121788946Y-55311715D01*
X121675907Y-55880000D01*
X121788946Y-56448285D01*
X122110853Y-56930054D01*
X122451553Y-57157702D01*
X122308642Y-57224817D01*
X121918355Y-57653076D01*
X121748524Y-58063110D01*
X121869845Y-58293000D01*
X123063000Y-58293000D01*
X123063000Y-58273000D01*
X123317000Y-58273000D01*
X123317000Y-58293000D01*
X124510155Y-58293000D01*
X124631476Y-58063110D01*
X124461645Y-57653076D01*
X124071358Y-57224817D01*
X123928447Y-57157702D01*
X124269147Y-56930054D01*
X124591054Y-56448285D01*
X124704093Y-55880000D01*
X129295907Y-55880000D01*
X129408946Y-56448285D01*
X129730853Y-56930054D01*
X130060026Y-57150000D01*
X129730853Y-57369946D01*
X129408946Y-57851715D01*
X129295907Y-58420000D01*
X129408946Y-58988285D01*
X129730853Y-59470054D01*
X130212622Y-59791961D01*
X130780907Y-59905000D01*
X130839093Y-59905000D01*
X131407378Y-59791961D01*
X131889147Y-59470054D01*
X131889971Y-59468821D01*
X131896838Y-59505317D01*
X132035910Y-59721441D01*
X132248110Y-59866431D01*
X132500000Y-59917440D01*
X134200000Y-59917440D01*
X134435317Y-59873162D01*
X134651441Y-59734090D01*
X134796431Y-59521890D01*
X134847440Y-59270000D01*
X134847440Y-57570000D01*
X134803162Y-57334683D01*
X134664090Y-57118559D01*
X134451890Y-56973569D01*
X134384459Y-56959914D01*
X134429147Y-56930054D01*
X134751054Y-56448285D01*
X134864093Y-55880000D01*
X134751054Y-55311715D01*
X134429147Y-54829946D01*
X134099974Y-54610000D01*
X134429147Y-54390054D01*
X134751054Y-53908285D01*
X134864093Y-53340000D01*
X134751054Y-52771715D01*
X134429147Y-52289946D01*
X133947378Y-51968039D01*
X133379093Y-51855000D01*
X133320907Y-51855000D01*
X132752622Y-51968039D01*
X132270853Y-52289946D01*
X132081655Y-52573101D01*
X132081645Y-52573076D01*
X131691358Y-52144817D01*
X131166892Y-51898514D01*
X130937000Y-52019181D01*
X130937000Y-53213000D01*
X130957000Y-53213000D01*
X130957000Y-53467000D01*
X130937000Y-53467000D01*
X130937000Y-53487000D01*
X130683000Y-53487000D01*
X130683000Y-53467000D01*
X129489845Y-53467000D01*
X129368524Y-53696890D01*
X129538355Y-54106924D01*
X129928642Y-54535183D01*
X130071553Y-54602298D01*
X129730853Y-54829946D01*
X129408946Y-55311715D01*
X129295907Y-55880000D01*
X124704093Y-55880000D01*
X124591054Y-55311715D01*
X124269147Y-54829946D01*
X123939974Y-54610000D01*
X124269147Y-54390054D01*
X124591054Y-53908285D01*
X124704093Y-53340000D01*
X124633104Y-52983110D01*
X129368524Y-52983110D01*
X129489845Y-53213000D01*
X130683000Y-53213000D01*
X130683000Y-52019181D01*
X130453108Y-51898514D01*
X129928642Y-52144817D01*
X129538355Y-52573076D01*
X129368524Y-52983110D01*
X124633104Y-52983110D01*
X124591054Y-52771715D01*
X124269147Y-52289946D01*
X123939974Y-52070000D01*
X124269147Y-51850054D01*
X124591054Y-51368285D01*
X124704093Y-50800000D01*
X124591054Y-50231715D01*
X124269147Y-49749946D01*
X124227548Y-49722150D01*
X124275317Y-49713162D01*
X124491441Y-49574090D01*
X124636431Y-49361890D01*
X124687440Y-49110000D01*
X124687440Y-47432619D01*
X160324613Y-47432619D01*
X160664155Y-48254372D01*
X161292321Y-48883636D01*
X162113481Y-49224611D01*
X163002619Y-49225387D01*
X163824372Y-48885845D01*
X164453636Y-48257679D01*
X164794611Y-47436519D01*
X164795387Y-46547381D01*
X164455845Y-45725628D01*
X163827679Y-45096364D01*
X163006519Y-44755389D01*
X162117381Y-44754613D01*
X161295628Y-45094155D01*
X160666364Y-45722321D01*
X160325389Y-46543481D01*
X160324613Y-47432619D01*
X124687440Y-47432619D01*
X124687440Y-47410000D01*
X124643162Y-47174683D01*
X124504090Y-46958559D01*
X124291890Y-46813569D01*
X124040000Y-46762560D01*
X122340000Y-46762560D01*
X122104683Y-46806838D01*
X121888559Y-46945910D01*
X121743569Y-47158110D01*
X121692560Y-47410000D01*
X121692560Y-49110000D01*
X121736838Y-49345317D01*
X121875910Y-49561441D01*
X122088110Y-49706431D01*
X122155541Y-49720086D01*
X122110853Y-49749946D01*
X121788946Y-50231715D01*
X121675907Y-50800000D01*
X116253453Y-50800000D01*
X115856691Y-50635250D01*
X115285813Y-50634752D01*
X114758200Y-50852757D01*
X114354176Y-51256077D01*
X114135250Y-51783309D01*
X114134752Y-52354187D01*
X111924752Y-52354187D01*
X111925248Y-51785813D01*
X111707243Y-51258200D01*
X111303923Y-50854176D01*
X110776691Y-50635250D01*
X110205813Y-50634752D01*
X109678200Y-50852757D01*
X109274176Y-51256077D01*
X109055250Y-51783309D01*
X109054752Y-52354187D01*
X71247000Y-52354187D01*
X71247000Y-47432619D01*
X71424613Y-47432619D01*
X71764155Y-48254372D01*
X72392321Y-48883636D01*
X73213481Y-49224611D01*
X74102619Y-49225387D01*
X74924372Y-48885845D01*
X75553636Y-48257679D01*
X75894611Y-47436519D01*
X75894764Y-47260510D01*
X77093070Y-47260510D01*
X77093070Y-49259490D01*
X77137348Y-49494807D01*
X77276420Y-49710931D01*
X77488620Y-49855921D01*
X77740510Y-49906930D01*
X79739490Y-49906930D01*
X79974807Y-49862652D01*
X80190931Y-49723580D01*
X80301094Y-49562351D01*
X80320274Y-49583068D01*
X80899645Y-49849627D01*
X81153000Y-49730807D01*
X81153000Y-48387000D01*
X81407000Y-48387000D01*
X81407000Y-49730807D01*
X81660355Y-49849627D01*
X82239726Y-49583068D01*
X82672987Y-49115084D01*
X82869619Y-48640354D01*
X82750265Y-48387000D01*
X81407000Y-48387000D01*
X81153000Y-48387000D01*
X81133000Y-48387000D01*
X81133000Y-48133000D01*
X81153000Y-48133000D01*
X81153000Y-46789193D01*
X81407000Y-46789193D01*
X81407000Y-48133000D01*
X82750265Y-48133000D01*
X82869619Y-47879646D01*
X82672987Y-47404916D01*
X82539296Y-47260510D01*
X88523070Y-47260510D01*
X88523070Y-49259490D01*
X88567348Y-49494807D01*
X88706420Y-49710931D01*
X88918620Y-49855921D01*
X89170510Y-49906930D01*
X91169490Y-49906930D01*
X91404807Y-49862652D01*
X91620931Y-49723580D01*
X91734390Y-49557527D01*
X92052486Y-49770072D01*
X92677978Y-49894490D01*
X92742022Y-49894490D01*
X93367514Y-49770072D01*
X93897781Y-49415759D01*
X94252094Y-48885492D01*
X94376512Y-48260000D01*
X94346676Y-48110000D01*
X100438275Y-48110000D01*
X100619822Y-49022700D01*
X101136825Y-49796450D01*
X101910575Y-50313453D01*
X102823275Y-50495000D01*
X102916725Y-50495000D01*
X103829425Y-50313453D01*
X104603175Y-49796450D01*
X105120178Y-49022700D01*
X105207481Y-48583795D01*
X108854716Y-48583795D01*
X109103106Y-49184943D01*
X109562637Y-49645278D01*
X110163352Y-49894716D01*
X110813795Y-49895284D01*
X111414943Y-49646894D01*
X111875278Y-49187363D01*
X112124716Y-48586648D01*
X112124718Y-48583795D01*
X113934716Y-48583795D01*
X114183106Y-49184943D01*
X114642637Y-49645278D01*
X115243352Y-49894716D01*
X115893795Y-49895284D01*
X116494943Y-49646894D01*
X116955278Y-49187363D01*
X117204716Y-48586648D01*
X117205284Y-47936205D01*
X116956894Y-47335057D01*
X116894749Y-47272803D01*
X116929698Y-47258327D01*
X117108327Y-47079699D01*
X117205000Y-46846310D01*
X117205000Y-46005750D01*
X117046250Y-45847000D01*
X115697000Y-45847000D01*
X115697000Y-45867000D01*
X115443000Y-45867000D01*
X115443000Y-45847000D01*
X114093750Y-45847000D01*
X113935000Y-46005750D01*
X113935000Y-46846310D01*
X114031673Y-47079699D01*
X114210302Y-47258327D01*
X114244834Y-47272630D01*
X114184722Y-47332637D01*
X113935284Y-47933352D01*
X113934716Y-48583795D01*
X112124718Y-48583795D01*
X112125284Y-47936205D01*
X111876894Y-47335057D01*
X111814749Y-47272803D01*
X111849698Y-47258327D01*
X112028327Y-47079699D01*
X112125000Y-46846310D01*
X112125000Y-46005750D01*
X111966250Y-45847000D01*
X110617000Y-45847000D01*
X110617000Y-45867000D01*
X110363000Y-45867000D01*
X110363000Y-45847000D01*
X109013750Y-45847000D01*
X108855000Y-46005750D01*
X108855000Y-46846310D01*
X108951673Y-47079699D01*
X109130302Y-47258327D01*
X109164834Y-47272630D01*
X109104722Y-47332637D01*
X108855284Y-47933352D01*
X108854716Y-48583795D01*
X105207481Y-48583795D01*
X105301725Y-48110000D01*
X105120178Y-47197300D01*
X104603175Y-46423550D01*
X103829425Y-45906547D01*
X102916725Y-45725000D01*
X102823275Y-45725000D01*
X101910575Y-45906547D01*
X101136825Y-46423550D01*
X100619822Y-47197300D01*
X100438275Y-48110000D01*
X94346676Y-48110000D01*
X94252094Y-47634508D01*
X93897781Y-47104241D01*
X93367514Y-46749928D01*
X92742022Y-46625510D01*
X92677978Y-46625510D01*
X92052486Y-46749928D01*
X91732923Y-46963453D01*
X91633580Y-46809069D01*
X91421380Y-46664079D01*
X91169490Y-46613070D01*
X89170510Y-46613070D01*
X88935193Y-46657348D01*
X88719069Y-46796420D01*
X88574079Y-47008620D01*
X88523070Y-47260510D01*
X82539296Y-47260510D01*
X82239726Y-46936932D01*
X81660355Y-46670373D01*
X81407000Y-46789193D01*
X81153000Y-46789193D01*
X80899645Y-46670373D01*
X80320274Y-46936932D01*
X80299970Y-46958863D01*
X80203580Y-46809069D01*
X79991380Y-46664079D01*
X79739490Y-46613070D01*
X77740510Y-46613070D01*
X77505193Y-46657348D01*
X77289069Y-46796420D01*
X77144079Y-47008620D01*
X77093070Y-47260510D01*
X75894764Y-47260510D01*
X75895387Y-46547381D01*
X75555845Y-45725628D01*
X74927679Y-45096364D01*
X74106519Y-44755389D01*
X73217381Y-44754613D01*
X72395628Y-45094155D01*
X71766364Y-45722321D01*
X71425389Y-46543481D01*
X71424613Y-47432619D01*
X71247000Y-47432619D01*
X71247000Y-44577000D01*
X108861913Y-44577000D01*
X108855000Y-44593690D01*
X108855000Y-44593690D01*
G37*
X108855000Y-44593690D02*
X108855000Y-45434250D01*
X109013750Y-45593000D01*
X110363000Y-45593000D01*
X110363000Y-45573000D01*
X110617000Y-45573000D01*
X110617000Y-45593000D01*
X111966250Y-45593000D01*
X112125000Y-45434250D01*
X112125000Y-44593690D01*
X112118087Y-44577000D01*
X113941913Y-44577000D01*
X113935000Y-44593690D01*
X113935000Y-45434250D01*
X114093750Y-45593000D01*
X115443000Y-45593000D01*
X115443000Y-45573000D01*
X115697000Y-45573000D01*
X115697000Y-45593000D01*
X117046250Y-45593000D01*
X117205000Y-45434250D01*
X117205000Y-44593690D01*
X117198087Y-44577000D01*
X164973000Y-44577000D01*
X164973000Y-88773000D01*
X148067399Y-88773000D01*
X148108139Y-88637745D01*
X147280000Y-87809605D01*
X146451861Y-88637745D01*
X146492601Y-88773000D01*
X145666173Y-88773000D01*
X145995824Y-88443923D01*
X146023423Y-88377456D01*
X146026136Y-88384005D01*
X146272255Y-88458139D01*
X147100395Y-87630000D01*
X147459605Y-87630000D01*
X148287745Y-88458139D01*
X148533864Y-88384005D01*
X148726965Y-87846777D01*
X148699778Y-87276546D01*
X148533864Y-86875995D01*
X148290262Y-86802619D01*
X160324613Y-86802619D01*
X160664155Y-87624372D01*
X161292321Y-88253636D01*
X162113481Y-88594611D01*
X163002619Y-88595387D01*
X163824372Y-88255845D01*
X164453636Y-87627679D01*
X164794611Y-86806519D01*
X164795387Y-85917381D01*
X164455845Y-85095628D01*
X163827679Y-84466364D01*
X163006519Y-84125389D01*
X162117381Y-84124613D01*
X161295628Y-84464155D01*
X160666364Y-85092321D01*
X160325389Y-85913481D01*
X160324613Y-86802619D01*
X148290262Y-86802619D01*
X148287745Y-86801861D01*
X147459605Y-87630000D01*
X147100395Y-87630000D01*
X146272255Y-86801861D01*
X146026136Y-86875995D01*
X146023804Y-86882483D01*
X145997243Y-86818200D01*
X145801640Y-86622255D01*
X146451861Y-86622255D01*
X147280000Y-87450395D01*
X148108139Y-86622255D01*
X148034005Y-86376136D01*
X147496777Y-86183035D01*
X146926546Y-86210222D01*
X146525995Y-86376136D01*
X146451861Y-86622255D01*
X145801640Y-86622255D01*
X145593923Y-86414176D01*
X145066691Y-86195250D01*
X144495813Y-86194752D01*
X143968200Y-86412757D01*
X143564176Y-86816077D01*
X143345250Y-87343309D01*
X143344752Y-87914187D01*
X143562757Y-88441800D01*
X143893380Y-88773000D01*
X71247000Y-88773000D01*
X71247000Y-86070213D01*
X88099392Y-86070213D01*
X88168857Y-86312397D01*
X88692302Y-86499144D01*
X89247368Y-86471362D01*
X89584090Y-86331887D01*
X114135000Y-86331887D01*
X114135000Y-86388113D01*
X114244233Y-86937264D01*
X114555302Y-87402811D01*
X115020849Y-87713880D01*
X115570000Y-87823113D01*
X116119151Y-87713880D01*
X116584698Y-87402811D01*
X116895767Y-86937264D01*
X117005000Y-86388113D01*
X117005000Y-86331887D01*
X117945000Y-86331887D01*
X117945000Y-86388113D01*
X118054233Y-86937264D01*
X118365302Y-87402811D01*
X118830849Y-87713880D01*
X119380000Y-87823113D01*
X119929151Y-87713880D01*
X120394698Y-87402811D01*
X120705767Y-86937264D01*
X120815000Y-86388113D01*
X120815000Y-86331887D01*
X120705767Y-85782736D01*
X120394698Y-85317189D01*
X119929151Y-85006120D01*
X119380000Y-84896887D01*
X118830849Y-85006120D01*
X118365302Y-85317189D01*
X118054233Y-85782736D01*
X117945000Y-86331887D01*
X117005000Y-86331887D01*
X116895767Y-85782736D01*
X116584698Y-85317189D01*
X116119151Y-85006120D01*
X115570000Y-84896887D01*
X115020849Y-85006120D01*
X114555302Y-85317189D01*
X114244233Y-85782736D01*
X114135000Y-86331887D01*
X89584090Y-86331887D01*
X89631143Y-86312397D01*
X89700608Y-86070213D01*
X88900000Y-85269605D01*
X88099392Y-86070213D01*
X71247000Y-86070213D01*
X71247000Y-84882302D01*
X87490856Y-84882302D01*
X87518638Y-85437368D01*
X87677603Y-85821143D01*
X87919787Y-85890608D01*
X88720395Y-85090000D01*
X89079605Y-85090000D01*
X89880213Y-85890608D01*
X90122397Y-85821143D01*
X90309144Y-85297698D01*
X90281362Y-84742632D01*
X90122397Y-84358857D01*
X89880213Y-84289392D01*
X89079605Y-85090000D01*
X88720395Y-85090000D01*
X87919787Y-84289392D01*
X87677603Y-84358857D01*
X87490856Y-84882302D01*
X71247000Y-84882302D01*
X71247000Y-82972815D01*
X72794630Y-82972815D01*
X73118980Y-83757800D01*
X73719041Y-84358909D01*
X74503459Y-84684628D01*
X75352815Y-84685370D01*
X76137800Y-84361020D01*
X76738909Y-83760959D01*
X77064628Y-82976541D01*
X77064631Y-82972815D01*
X80414630Y-82972815D01*
X80738980Y-83757800D01*
X81339041Y-84358909D01*
X82123459Y-84684628D01*
X82972815Y-84685370D01*
X83757800Y-84361020D01*
X84358909Y-83760959D01*
X84684628Y-82976541D01*
X84685370Y-82127185D01*
X84361020Y-81342200D01*
X83760959Y-80741091D01*
X82976541Y-80415372D01*
X82127185Y-80414630D01*
X81342200Y-80738980D01*
X80741091Y-81339041D01*
X80415372Y-82123459D01*
X80414630Y-82972815D01*
X77064631Y-82972815D01*
X77065370Y-82127185D01*
X76741020Y-81342200D01*
X76140959Y-80741091D01*
X75356541Y-80415372D01*
X74507185Y-80414630D01*
X73722200Y-80738980D01*
X73121091Y-81339041D01*
X72795372Y-82123459D01*
X72794630Y-82972815D01*
X71247000Y-82972815D01*
X71247000Y-80286661D01*
X87502758Y-80286661D01*
X87714990Y-80800303D01*
X88107630Y-81193629D01*
X88315512Y-81279949D01*
X88109697Y-81364990D01*
X87716371Y-81757630D01*
X87503243Y-82270900D01*
X87502758Y-82826661D01*
X87714990Y-83340303D01*
X88107630Y-83733629D01*
X88299727Y-83813395D01*
X88168857Y-83867603D01*
X88099392Y-84109787D01*
X88900000Y-84910395D01*
X89700608Y-84109787D01*
X89631143Y-83867603D01*
X89490682Y-83817491D01*
X89690303Y-83735010D01*
X90083629Y-83342370D01*
X90296757Y-82829100D01*
X90297242Y-82273339D01*
X90085010Y-81759697D01*
X89692370Y-81366371D01*
X89484488Y-81280051D01*
X89690303Y-81195010D01*
X90083629Y-80802370D01*
X90296757Y-80289100D01*
X90297000Y-80010000D01*
X91246887Y-80010000D01*
X91356120Y-80559151D01*
X91667189Y-81024698D01*
X92040336Y-81274027D01*
X91898200Y-81332757D01*
X91494176Y-81736077D01*
X91275250Y-82263309D01*
X91274752Y-82834187D01*
X91492757Y-83361800D01*
X91896077Y-83765824D01*
X92423309Y-83984750D01*
X92994187Y-83985248D01*
X93521800Y-83767243D01*
X93925824Y-83363923D01*
X94144750Y-82836691D01*
X94145000Y-82550000D01*
X101406887Y-82550000D01*
X101516120Y-83099151D01*
X101827189Y-83564698D01*
X102292736Y-83875767D01*
X102841887Y-83985000D01*
X102898113Y-83985000D01*
X103447264Y-83875767D01*
X103912811Y-83564698D01*
X104223880Y-83099151D01*
X104333113Y-82550000D01*
X104223880Y-82000849D01*
X103912811Y-81535302D01*
X103539664Y-81285973D01*
X103681800Y-81227243D01*
X104008944Y-80900669D01*
X104023106Y-80934943D01*
X104482637Y-81395278D01*
X105083352Y-81644716D01*
X105733795Y-81645284D01*
X106334943Y-81396894D01*
X106397197Y-81334749D01*
X106411673Y-81369698D01*
X106590301Y-81548327D01*
X106823690Y-81645000D01*
X107664250Y-81645000D01*
X107823000Y-81486250D01*
X107823000Y-80137000D01*
X108077000Y-80137000D01*
X108077000Y-81486250D01*
X108235750Y-81645000D01*
X109076310Y-81645000D01*
X109309699Y-81548327D01*
X109488327Y-81369698D01*
X109585000Y-81136309D01*
X109585000Y-80295750D01*
X109426250Y-80137000D01*
X108077000Y-80137000D01*
X107823000Y-80137000D01*
X107803000Y-80137000D01*
X107803000Y-79883000D01*
X107823000Y-79883000D01*
X107823000Y-78533750D01*
X108077000Y-78533750D01*
X108077000Y-79883000D01*
X109426250Y-79883000D01*
X109585000Y-79724250D01*
X109585000Y-78883691D01*
X109525482Y-78740000D01*
X121675907Y-78740000D01*
X121788946Y-79308285D01*
X122110853Y-79790054D01*
X122440026Y-80010000D01*
X122110853Y-80229946D01*
X121788946Y-80711715D01*
X121675907Y-81280000D01*
X121788946Y-81848285D01*
X122110853Y-82330054D01*
X122440026Y-82550000D01*
X122110853Y-82769946D01*
X121788946Y-83251715D01*
X121675907Y-83820000D01*
X121788946Y-84388285D01*
X122110853Y-84870054D01*
X122592622Y-85191961D01*
X123160907Y-85305000D01*
X123219093Y-85305000D01*
X123787378Y-85191961D01*
X124269147Y-84870054D01*
X124591054Y-84388285D01*
X124704093Y-83820000D01*
X124591054Y-83251715D01*
X124269147Y-82769946D01*
X123939974Y-82550000D01*
X124269147Y-82330054D01*
X124591054Y-81848285D01*
X124704093Y-81280000D01*
X124591054Y-80711715D01*
X124269147Y-80229946D01*
X123939974Y-80010000D01*
X124269147Y-79790054D01*
X124591054Y-79308285D01*
X124704093Y-78740000D01*
X126755907Y-78740000D01*
X126868946Y-79308285D01*
X127190853Y-79790054D01*
X127520026Y-80010000D01*
X127190853Y-80229946D01*
X126868946Y-80711715D01*
X126755907Y-81280000D01*
X126868946Y-81848285D01*
X127190853Y-82330054D01*
X127520026Y-82550000D01*
X127190853Y-82769946D01*
X126868946Y-83251715D01*
X126755907Y-83820000D01*
X126868946Y-84388285D01*
X127190853Y-84870054D01*
X127672622Y-85191961D01*
X128240907Y-85305000D01*
X128299093Y-85305000D01*
X128867378Y-85191961D01*
X129349147Y-84870054D01*
X129671054Y-84388285D01*
X129784093Y-83820000D01*
X129671054Y-83251715D01*
X129349147Y-82769946D01*
X129019974Y-82550000D01*
X129349147Y-82330054D01*
X129671054Y-81848285D01*
X129784093Y-81280000D01*
X129671054Y-80711715D01*
X129349147Y-80229946D01*
X129019974Y-80010000D01*
X129349147Y-79790054D01*
X129671054Y-79308285D01*
X129784093Y-78740000D01*
X129671054Y-78171715D01*
X129349147Y-77689946D01*
X129305223Y-77660597D01*
X129479698Y-77588327D01*
X129658327Y-77409699D01*
X129755000Y-77176310D01*
X129755000Y-76485750D01*
X129596250Y-76327000D01*
X128397000Y-76327000D01*
X128397000Y-76347000D01*
X128143000Y-76347000D01*
X128143000Y-76327000D01*
X126943750Y-76327000D01*
X126785000Y-76485750D01*
X126785000Y-77176310D01*
X126881673Y-77409699D01*
X127060302Y-77588327D01*
X127234777Y-77660597D01*
X127190853Y-77689946D01*
X126868946Y-78171715D01*
X126755907Y-78740000D01*
X124704093Y-78740000D01*
X124591054Y-78171715D01*
X124269147Y-77689946D01*
X124225223Y-77660597D01*
X124399698Y-77588327D01*
X124578327Y-77409699D01*
X124675000Y-77176310D01*
X124675000Y-76485750D01*
X124516250Y-76327000D01*
X123317000Y-76327000D01*
X123317000Y-76347000D01*
X123063000Y-76347000D01*
X123063000Y-76327000D01*
X121863750Y-76327000D01*
X121705000Y-76485750D01*
X121705000Y-77176310D01*
X121801673Y-77409699D01*
X121980302Y-77588327D01*
X122154777Y-77660597D01*
X122110853Y-77689946D01*
X121788946Y-78171715D01*
X121675907Y-78740000D01*
X109525482Y-78740000D01*
X109488327Y-78650302D01*
X109309699Y-78471673D01*
X109076310Y-78375000D01*
X108235750Y-78375000D01*
X108077000Y-78533750D01*
X107823000Y-78533750D01*
X107664250Y-78375000D01*
X106823690Y-78375000D01*
X106590301Y-78471673D01*
X106411673Y-78650302D01*
X106397370Y-78684834D01*
X106337363Y-78624722D01*
X105736648Y-78375284D01*
X105086205Y-78374716D01*
X104485057Y-78623106D01*
X104024722Y-79082637D01*
X104009199Y-79120020D01*
X103683923Y-78794176D01*
X103156691Y-78575250D01*
X102585813Y-78574752D01*
X102058200Y-78792757D01*
X101654176Y-79196077D01*
X101435250Y-79723309D01*
X101434752Y-80294187D01*
X101652757Y-80821800D01*
X102056077Y-81225824D01*
X102200564Y-81285820D01*
X101827189Y-81535302D01*
X101516120Y-82000849D01*
X101406887Y-82550000D01*
X94145000Y-82550000D01*
X94145248Y-82265813D01*
X93927243Y-81738200D01*
X93523923Y-81334176D01*
X93379436Y-81274180D01*
X93752811Y-81024698D01*
X94063880Y-80559151D01*
X94173113Y-80010000D01*
X94063880Y-79460849D01*
X93752811Y-78995302D01*
X93287264Y-78684233D01*
X92738113Y-78575000D01*
X92681887Y-78575000D01*
X92132736Y-78684233D01*
X91667189Y-78995302D01*
X91356120Y-79460849D01*
X91246887Y-80010000D01*
X90297000Y-80010000D01*
X90297242Y-79733339D01*
X90085010Y-79219697D01*
X89692370Y-78826371D01*
X89179100Y-78613243D01*
X88623339Y-78612758D01*
X88109697Y-78824990D01*
X87716371Y-79217630D01*
X87503243Y-79730900D01*
X87502758Y-80286661D01*
X71247000Y-80286661D01*
X71247000Y-76943223D01*
X90038183Y-76943223D01*
X90136782Y-77210025D01*
X90746322Y-77436461D01*
X91396117Y-77412401D01*
X91884698Y-77210025D01*
X91983297Y-76943223D01*
X91010740Y-75970665D01*
X90038183Y-76943223D01*
X71247000Y-76943223D01*
X71247000Y-75526642D01*
X89365339Y-75526642D01*
X89389399Y-76176437D01*
X89591775Y-76665018D01*
X89858577Y-76763617D01*
X90831135Y-75791060D01*
X89858577Y-74818503D01*
X89591775Y-74917102D01*
X89365339Y-75526642D01*
X71247000Y-75526642D01*
X71247000Y-74638897D01*
X90038183Y-74638897D01*
X91010740Y-75611455D01*
X91024883Y-75597313D01*
X91204488Y-75776918D01*
X91190345Y-75791060D01*
X92162903Y-76763617D01*
X92429705Y-76665018D01*
X92463239Y-76574747D01*
X93095377Y-76551341D01*
X93257501Y-76484187D01*
X114134752Y-76484187D01*
X114352757Y-77011800D01*
X114756077Y-77415824D01*
X115283309Y-77634750D01*
X115854187Y-77635248D01*
X116381800Y-77417243D01*
X116785824Y-77013923D01*
X117004750Y-76486691D01*
X117004752Y-76484187D01*
X117944752Y-76484187D01*
X118162757Y-77011800D01*
X118566077Y-77415824D01*
X119093309Y-77634750D01*
X119664187Y-77635248D01*
X120191800Y-77417243D01*
X120595824Y-77013923D01*
X120814750Y-76486691D01*
X120815248Y-75915813D01*
X120597243Y-75388200D01*
X120433020Y-75223690D01*
X121705000Y-75223690D01*
X121705000Y-75914250D01*
X121863750Y-76073000D01*
X123063000Y-76073000D01*
X123063000Y-74873750D01*
X123317000Y-74873750D01*
X123317000Y-76073000D01*
X124516250Y-76073000D01*
X124675000Y-75914250D01*
X124675000Y-75223690D01*
X126785000Y-75223690D01*
X126785000Y-75914250D01*
X126943750Y-76073000D01*
X128143000Y-76073000D01*
X128143000Y-74873750D01*
X128397000Y-74873750D01*
X128397000Y-76073000D01*
X129596250Y-76073000D01*
X129755000Y-75914250D01*
X129755000Y-75223690D01*
X129658327Y-74990301D01*
X129479698Y-74811673D01*
X129246309Y-74715000D01*
X128555750Y-74715000D01*
X128397000Y-74873750D01*
X128143000Y-74873750D01*
X127984250Y-74715000D01*
X127293691Y-74715000D01*
X127060302Y-74811673D01*
X126881673Y-74990301D01*
X126785000Y-75223690D01*
X124675000Y-75223690D01*
X124578327Y-74990301D01*
X124399698Y-74811673D01*
X124166309Y-74715000D01*
X123475750Y-74715000D01*
X123317000Y-74873750D01*
X123063000Y-74873750D01*
X122904250Y-74715000D01*
X122213691Y-74715000D01*
X121980302Y-74811673D01*
X121801673Y-74990301D01*
X121705000Y-75223690D01*
X120433020Y-75223690D01*
X120193923Y-74984176D01*
X119666691Y-74765250D01*
X119095813Y-74764752D01*
X118568200Y-74982757D01*
X118164176Y-75386077D01*
X117945250Y-75913309D01*
X117944752Y-76484187D01*
X117004752Y-76484187D01*
X117005248Y-75915813D01*
X116787243Y-75388200D01*
X116383923Y-74984176D01*
X116330000Y-74961785D01*
X116330000Y-73845167D01*
X124794838Y-73845167D01*
X124936883Y-74188943D01*
X125199673Y-74452192D01*
X125543201Y-74594838D01*
X125915167Y-74595162D01*
X126258943Y-74453117D01*
X126292118Y-74420000D01*
X134620000Y-74420000D01*
X134910839Y-74362148D01*
X135157401Y-74197401D01*
X135697405Y-73657397D01*
X135696887Y-73660000D01*
X135806120Y-74209151D01*
X136117189Y-74674698D01*
X136499275Y-74930000D01*
X136117189Y-75185302D01*
X135806120Y-75650849D01*
X135696887Y-76200000D01*
X135806120Y-76749151D01*
X136117189Y-77214698D01*
X136499275Y-77470000D01*
X136117189Y-77725302D01*
X135806120Y-78190849D01*
X135696887Y-78740000D01*
X135806120Y-79289151D01*
X136117189Y-79754698D01*
X136499275Y-80010000D01*
X136117189Y-80265302D01*
X135806120Y-80730849D01*
X135696887Y-81280000D01*
X135806120Y-81829151D01*
X136117189Y-82294698D01*
X136499275Y-82550000D01*
X136117189Y-82805302D01*
X135806120Y-83270849D01*
X135696887Y-83820000D01*
X135806120Y-84369151D01*
X136117189Y-84834698D01*
X136582736Y-85145767D01*
X137131887Y-85255000D01*
X137188113Y-85255000D01*
X137737264Y-85145767D01*
X138202811Y-84834698D01*
X138513880Y-84369151D01*
X138623113Y-83820000D01*
X138513880Y-83270849D01*
X138202811Y-82805302D01*
X137820725Y-82550000D01*
X138202811Y-82294698D01*
X138513880Y-81829151D01*
X138623113Y-81280000D01*
X138513880Y-80730849D01*
X138202811Y-80265302D01*
X137820725Y-80010000D01*
X138202811Y-79754698D01*
X138513880Y-79289151D01*
X138623113Y-78740000D01*
X138513880Y-78190849D01*
X138202811Y-77725302D01*
X137820725Y-77470000D01*
X138202811Y-77214698D01*
X138513880Y-76749151D01*
X138623113Y-76200000D01*
X138513880Y-75650849D01*
X138202811Y-75185302D01*
X137820725Y-74930000D01*
X138202811Y-74674698D01*
X138513880Y-74209151D01*
X138623113Y-73660000D01*
X138513880Y-73110849D01*
X138202811Y-72645302D01*
X137820725Y-72390000D01*
X138202811Y-72134698D01*
X138513880Y-71669151D01*
X138623113Y-71120000D01*
X138513880Y-70570849D01*
X138202811Y-70105302D01*
X137798297Y-69835014D01*
X138015134Y-69732389D01*
X138391041Y-69317423D01*
X138551904Y-68929039D01*
X138429915Y-68707000D01*
X137287000Y-68707000D01*
X137287000Y-68727000D01*
X137033000Y-68727000D01*
X137033000Y-68707000D01*
X135890085Y-68707000D01*
X135768096Y-68929039D01*
X135928959Y-69317423D01*
X136304866Y-69732389D01*
X136521703Y-69835014D01*
X136117189Y-70105302D01*
X135892408Y-70441710D01*
X135837243Y-70308200D01*
X135433923Y-69904176D01*
X134906691Y-69685250D01*
X134335813Y-69684752D01*
X133808200Y-69902757D01*
X133404176Y-70306077D01*
X133185250Y-70833309D01*
X133184752Y-71404187D01*
X133402757Y-71931800D01*
X133806077Y-72335824D01*
X134333309Y-72554750D01*
X134650172Y-72555026D01*
X134305198Y-72900000D01*
X126292463Y-72900000D01*
X126260327Y-72867808D01*
X125916799Y-72725162D01*
X125544833Y-72724838D01*
X125201057Y-72866883D01*
X124937808Y-73129673D01*
X124795162Y-73473201D01*
X124794838Y-73845167D01*
X116330000Y-73845167D01*
X116330000Y-72746890D01*
X121748524Y-72746890D01*
X121918355Y-73156924D01*
X122308642Y-73585183D01*
X122833108Y-73831486D01*
X123063000Y-73710819D01*
X123063000Y-72517000D01*
X123317000Y-72517000D01*
X123317000Y-73710819D01*
X123546892Y-73831486D01*
X124071358Y-73585183D01*
X124461645Y-73156924D01*
X124631476Y-72746890D01*
X124510155Y-72517000D01*
X123317000Y-72517000D01*
X123063000Y-72517000D01*
X121869845Y-72517000D01*
X121748524Y-72746890D01*
X116330000Y-72746890D01*
X116330000Y-67310000D01*
X121675907Y-67310000D01*
X121788946Y-67878285D01*
X122110853Y-68360054D01*
X122440026Y-68580000D01*
X122110853Y-68799946D01*
X121788946Y-69281715D01*
X121675907Y-69850000D01*
X121788946Y-70418285D01*
X122110853Y-70900054D01*
X122451553Y-71127702D01*
X122308642Y-71194817D01*
X121918355Y-71623076D01*
X121748524Y-72033110D01*
X121869845Y-72263000D01*
X123063000Y-72263000D01*
X123063000Y-72243000D01*
X123317000Y-72243000D01*
X123317000Y-72263000D01*
X124510155Y-72263000D01*
X124631476Y-72033110D01*
X124461645Y-71623076D01*
X124071358Y-71194817D01*
X123928447Y-71127702D01*
X124269147Y-70900054D01*
X124591054Y-70418285D01*
X124704093Y-69850000D01*
X124591054Y-69281715D01*
X124269147Y-68799946D01*
X123939974Y-68580000D01*
X124269147Y-68360054D01*
X124591054Y-67878285D01*
X124704093Y-67310000D01*
X124651928Y-67047745D01*
X128711861Y-67047745D01*
X128785995Y-67293864D01*
X129323223Y-67486965D01*
X129893454Y-67459778D01*
X130294005Y-67293864D01*
X130368139Y-67047745D01*
X129540000Y-66219605D01*
X128711861Y-67047745D01*
X124651928Y-67047745D01*
X124591054Y-66741715D01*
X124269147Y-66259946D01*
X124227548Y-66232150D01*
X124275317Y-66223162D01*
X124491441Y-66084090D01*
X124636431Y-65871890D01*
X124646286Y-65823223D01*
X128093035Y-65823223D01*
X128120222Y-66393454D01*
X128286136Y-66794005D01*
X128532255Y-66868139D01*
X129360395Y-66040000D01*
X128532255Y-65211861D01*
X128286136Y-65285995D01*
X128093035Y-65823223D01*
X124646286Y-65823223D01*
X124687440Y-65620000D01*
X124687440Y-64507745D01*
X128711861Y-64507745D01*
X128785995Y-64753864D01*
X128827709Y-64768858D01*
X128785995Y-64786136D01*
X128711861Y-65032255D01*
X129540000Y-65860395D01*
X130368139Y-65032255D01*
X130294005Y-64786136D01*
X130252291Y-64771142D01*
X130294005Y-64753864D01*
X130368139Y-64507745D01*
X129540000Y-63679605D01*
X128711861Y-64507745D01*
X124687440Y-64507745D01*
X124687440Y-63920000D01*
X124643162Y-63684683D01*
X124504090Y-63468559D01*
X124291890Y-63323569D01*
X124092656Y-63283223D01*
X128093035Y-63283223D01*
X128120222Y-63853454D01*
X128286136Y-64254005D01*
X128532255Y-64328139D01*
X129360395Y-63500000D01*
X129719605Y-63500000D01*
X130547745Y-64328139D01*
X130793864Y-64254005D01*
X130796196Y-64247517D01*
X130822757Y-64311800D01*
X131226077Y-64715824D01*
X131356215Y-64769862D01*
X131228200Y-64822757D01*
X130824176Y-65226077D01*
X130796577Y-65292544D01*
X130793864Y-65285995D01*
X130547745Y-65211861D01*
X129719605Y-66040000D01*
X130547745Y-66868139D01*
X130793864Y-66794005D01*
X130796196Y-66787517D01*
X130822757Y-66851800D01*
X131226077Y-67255824D01*
X131753309Y-67474750D01*
X132324187Y-67475248D01*
X132851800Y-67257243D01*
X133255824Y-66853923D01*
X133474750Y-66326691D01*
X133475248Y-65755813D01*
X133257243Y-65228200D01*
X132853923Y-64824176D01*
X132723785Y-64770138D01*
X132851800Y-64717243D01*
X133255824Y-64313923D01*
X133331151Y-64132516D01*
X133605302Y-64542811D01*
X134070849Y-64853880D01*
X134620000Y-64963113D01*
X135169151Y-64853880D01*
X135634698Y-64542811D01*
X135885336Y-64167706D01*
X136117189Y-64514698D01*
X136499275Y-64770000D01*
X136117189Y-65025302D01*
X135806120Y-65490849D01*
X135696887Y-66040000D01*
X135806120Y-66589151D01*
X136117189Y-67054698D01*
X136521703Y-67324986D01*
X136304866Y-67427611D01*
X135928959Y-67842577D01*
X135768096Y-68230961D01*
X135890085Y-68453000D01*
X137033000Y-68453000D01*
X137033000Y-68433000D01*
X137287000Y-68433000D01*
X137287000Y-68453000D01*
X138429915Y-68453000D01*
X138551904Y-68230961D01*
X138391041Y-67842577D01*
X138076332Y-67495167D01*
X140034838Y-67495167D01*
X140176883Y-67838943D01*
X140210000Y-67872118D01*
X140210000Y-70557537D01*
X140177808Y-70589673D01*
X140035162Y-70933201D01*
X140034838Y-71305167D01*
X140176883Y-71648943D01*
X140439673Y-71912192D01*
X140783201Y-72054838D01*
X141155167Y-72055162D01*
X141498943Y-71913117D01*
X141762192Y-71650327D01*
X141904838Y-71306799D01*
X141905162Y-70934833D01*
X141763117Y-70591057D01*
X141730000Y-70557882D01*
X141730000Y-68580000D01*
X143316887Y-68580000D01*
X143426120Y-69129151D01*
X143737189Y-69594698D01*
X144119275Y-69850000D01*
X143737189Y-70105302D01*
X143426120Y-70570849D01*
X143316887Y-71120000D01*
X143426120Y-71669151D01*
X143737189Y-72134698D01*
X144119275Y-72390000D01*
X143737189Y-72645302D01*
X143426120Y-73110849D01*
X143316887Y-73660000D01*
X143426120Y-74209151D01*
X143737189Y-74674698D01*
X144119275Y-74930000D01*
X143737189Y-75185302D01*
X143426120Y-75650849D01*
X143316887Y-76200000D01*
X143426120Y-76749151D01*
X143737189Y-77214698D01*
X144119275Y-77470000D01*
X143737189Y-77725302D01*
X143426120Y-78190849D01*
X143316887Y-78740000D01*
X143426120Y-79289151D01*
X143737189Y-79754698D01*
X144119275Y-80010000D01*
X143737189Y-80265302D01*
X143426120Y-80730849D01*
X143316887Y-81280000D01*
X143426120Y-81829151D01*
X143737189Y-82294698D01*
X144119275Y-82550000D01*
X143737189Y-82805302D01*
X143426120Y-83270849D01*
X143316887Y-83820000D01*
X143426120Y-84369151D01*
X143737189Y-84834698D01*
X144202736Y-85145767D01*
X144751887Y-85255000D01*
X144808113Y-85255000D01*
X145357264Y-85145767D01*
X145822811Y-84834698D01*
X146054664Y-84487706D01*
X146305302Y-84862811D01*
X146770849Y-85173880D01*
X147320000Y-85283113D01*
X147869151Y-85173880D01*
X148334698Y-84862811D01*
X148645767Y-84397264D01*
X148755000Y-83848113D01*
X148755000Y-83791887D01*
X148645767Y-83242736D01*
X148334698Y-82777189D01*
X147869151Y-82466120D01*
X147320000Y-82356887D01*
X146770849Y-82466120D01*
X146305302Y-82777189D01*
X146054664Y-83152294D01*
X145822811Y-82805302D01*
X145440725Y-82550000D01*
X145822811Y-82294698D01*
X146133880Y-81829151D01*
X146243113Y-81280000D01*
X146133880Y-80730849D01*
X145822811Y-80265302D01*
X145440725Y-80010000D01*
X145822811Y-79754698D01*
X146133880Y-79289151D01*
X146243113Y-78740000D01*
X146133880Y-78190849D01*
X145822811Y-77725302D01*
X145440725Y-77470000D01*
X145822811Y-77214698D01*
X146133880Y-76749151D01*
X146243113Y-76200000D01*
X146133880Y-75650849D01*
X145822811Y-75185302D01*
X145440725Y-74930000D01*
X145822811Y-74674698D01*
X146133880Y-74209151D01*
X146243113Y-73660000D01*
X146133880Y-73110849D01*
X145822811Y-72645302D01*
X145440725Y-72390000D01*
X145822811Y-72134698D01*
X145854184Y-72087745D01*
X150301861Y-72087745D01*
X150375995Y-72333864D01*
X150913223Y-72526965D01*
X151483454Y-72499778D01*
X151884005Y-72333864D01*
X151958139Y-72087745D01*
X151130000Y-71259605D01*
X150301861Y-72087745D01*
X145854184Y-72087745D01*
X146133880Y-71669151D01*
X146243113Y-71120000D01*
X146192037Y-70863223D01*
X149683035Y-70863223D01*
X149710222Y-71433454D01*
X149876136Y-71834005D01*
X150122255Y-71908139D01*
X150950395Y-71080000D01*
X151309605Y-71080000D01*
X152137745Y-71908139D01*
X152383864Y-71834005D01*
X152576965Y-71296777D01*
X152549778Y-70726546D01*
X152383864Y-70325995D01*
X152137745Y-70251861D01*
X151309605Y-71080000D01*
X150950395Y-71080000D01*
X150122255Y-70251861D01*
X149876136Y-70325995D01*
X149683035Y-70863223D01*
X146192037Y-70863223D01*
X146133880Y-70570849D01*
X145822811Y-70105302D01*
X145440725Y-69850000D01*
X145822811Y-69594698D01*
X146047592Y-69258290D01*
X146102757Y-69391800D01*
X146506077Y-69795824D01*
X147033309Y-70014750D01*
X147604187Y-70015248D01*
X148131800Y-69797243D01*
X148535824Y-69393923D01*
X148754750Y-68866691D01*
X148754752Y-68864187D01*
X149694752Y-68864187D01*
X149912757Y-69391800D01*
X150316077Y-69795824D01*
X150382544Y-69823423D01*
X150375995Y-69826136D01*
X150301861Y-70072255D01*
X151130000Y-70900395D01*
X151958139Y-70072255D01*
X151884005Y-69826136D01*
X151877517Y-69823804D01*
X151941800Y-69797243D01*
X152345824Y-69393923D01*
X152564750Y-68866691D01*
X152565248Y-68295813D01*
X152542951Y-68241851D01*
X152714802Y-68070000D01*
X158750000Y-68070000D01*
X159040839Y-68012148D01*
X159287401Y-67847401D01*
X160557401Y-66577401D01*
X160722148Y-66330840D01*
X160780000Y-66040000D01*
X160780000Y-62544802D01*
X161414321Y-61910481D01*
X161480853Y-62010054D01*
X161810026Y-62230000D01*
X161480853Y-62449946D01*
X161158946Y-62931715D01*
X161045907Y-63500000D01*
X161158946Y-64068285D01*
X161480853Y-64550054D01*
X161810026Y-64770000D01*
X161480853Y-64989946D01*
X161158946Y-65471715D01*
X161045907Y-66040000D01*
X161158946Y-66608285D01*
X161480853Y-67090054D01*
X161810026Y-67310000D01*
X161480853Y-67529946D01*
X161158946Y-68011715D01*
X161045907Y-68580000D01*
X161158946Y-69148285D01*
X161480853Y-69630054D01*
X161810026Y-69850000D01*
X161480853Y-70069946D01*
X161158946Y-70551715D01*
X161045907Y-71120000D01*
X161158946Y-71688285D01*
X161480853Y-72170054D01*
X161810026Y-72390000D01*
X161480853Y-72609946D01*
X161158946Y-73091715D01*
X161045907Y-73660000D01*
X161158946Y-74228285D01*
X161480853Y-74710054D01*
X161810026Y-74930000D01*
X161480853Y-75149946D01*
X161158946Y-75631715D01*
X161045907Y-76200000D01*
X161158946Y-76768285D01*
X161480853Y-77250054D01*
X161810026Y-77470000D01*
X161480853Y-77689946D01*
X161158946Y-78171715D01*
X161045907Y-78740000D01*
X161158946Y-79308285D01*
X161480853Y-79790054D01*
X161522452Y-79817850D01*
X161474683Y-79826838D01*
X161258559Y-79965910D01*
X161113569Y-80178110D01*
X161062560Y-80430000D01*
X161062560Y-82130000D01*
X161106838Y-82365317D01*
X161245910Y-82581441D01*
X161458110Y-82726431D01*
X161710000Y-82777440D01*
X163410000Y-82777440D01*
X163645317Y-82733162D01*
X163861441Y-82594090D01*
X164006431Y-82381890D01*
X164057440Y-82130000D01*
X164057440Y-80430000D01*
X164013162Y-80194683D01*
X163874090Y-79978559D01*
X163661890Y-79833569D01*
X163594459Y-79819914D01*
X163639147Y-79790054D01*
X163961054Y-79308285D01*
X164074093Y-78740000D01*
X163961054Y-78171715D01*
X163639147Y-77689946D01*
X163309974Y-77470000D01*
X163639147Y-77250054D01*
X163961054Y-76768285D01*
X164074093Y-76200000D01*
X163961054Y-75631715D01*
X163639147Y-75149946D01*
X163309974Y-74930000D01*
X163639147Y-74710054D01*
X163961054Y-74228285D01*
X164074093Y-73660000D01*
X163961054Y-73091715D01*
X163639147Y-72609946D01*
X163309974Y-72390000D01*
X163639147Y-72170054D01*
X163961054Y-71688285D01*
X164074093Y-71120000D01*
X163961054Y-70551715D01*
X163639147Y-70069946D01*
X163309974Y-69850000D01*
X163639147Y-69630054D01*
X163961054Y-69148285D01*
X164074093Y-68580000D01*
X163961054Y-68011715D01*
X163639147Y-67529946D01*
X163309974Y-67310000D01*
X163639147Y-67090054D01*
X163961054Y-66608285D01*
X164074093Y-66040000D01*
X163961054Y-65471715D01*
X163639147Y-64989946D01*
X163309974Y-64770000D01*
X163639147Y-64550054D01*
X163961054Y-64068285D01*
X164074093Y-63500000D01*
X163961054Y-62931715D01*
X163639147Y-62449946D01*
X163309974Y-62230000D01*
X163639147Y-62010054D01*
X163961054Y-61528285D01*
X164074093Y-60960000D01*
X163961054Y-60391715D01*
X163639147Y-59909946D01*
X163298447Y-59682298D01*
X163441358Y-59615183D01*
X163831645Y-59186924D01*
X164001476Y-58776890D01*
X163880155Y-58547000D01*
X162687000Y-58547000D01*
X162687000Y-58567000D01*
X162433000Y-58567000D01*
X162433000Y-58547000D01*
X161239845Y-58547000D01*
X161118524Y-58776890D01*
X161288355Y-59186924D01*
X161678642Y-59615183D01*
X161821553Y-59682298D01*
X161480853Y-59909946D01*
X161286593Y-60200678D01*
X160999160Y-60257852D01*
X160752599Y-60422599D01*
X159482599Y-61692599D01*
X159317852Y-61939161D01*
X159260000Y-62230000D01*
X159260000Y-65725198D01*
X158435198Y-66550000D01*
X152400000Y-66550000D01*
X152109160Y-66607852D01*
X151862599Y-66772599D01*
X151468454Y-67166744D01*
X151416691Y-67145250D01*
X150845813Y-67144752D01*
X150318200Y-67362757D01*
X149914176Y-67766077D01*
X149695250Y-68293309D01*
X149694752Y-68864187D01*
X148754752Y-68864187D01*
X148755248Y-68295813D01*
X148537243Y-67768200D01*
X148133923Y-67364176D01*
X147606691Y-67145250D01*
X147035813Y-67144752D01*
X146508200Y-67362757D01*
X146104176Y-67766077D01*
X146047755Y-67901954D01*
X145822811Y-67565302D01*
X145418297Y-67295014D01*
X145635134Y-67192389D01*
X146011041Y-66777423D01*
X146171904Y-66389039D01*
X146049915Y-66167000D01*
X144907000Y-66167000D01*
X144907000Y-66187000D01*
X144653000Y-66187000D01*
X144653000Y-66167000D01*
X143510085Y-66167000D01*
X143388096Y-66389039D01*
X143548959Y-66777423D01*
X143924866Y-67192389D01*
X144141703Y-67295014D01*
X143737189Y-67565302D01*
X143426120Y-68030849D01*
X143316887Y-68580000D01*
X141730000Y-68580000D01*
X141730000Y-67872463D01*
X141762192Y-67840327D01*
X141904838Y-67496799D01*
X141905162Y-67124833D01*
X141763117Y-66781057D01*
X141500327Y-66517808D01*
X141156799Y-66375162D01*
X140784833Y-66374838D01*
X140441057Y-66516883D01*
X140177808Y-66779673D01*
X140035162Y-67123201D01*
X140034838Y-67495167D01*
X138076332Y-67495167D01*
X138015134Y-67427611D01*
X137798297Y-67324986D01*
X138202811Y-67054698D01*
X138513880Y-66589151D01*
X138623113Y-66040000D01*
X138513880Y-65490849D01*
X138202811Y-65025302D01*
X137820725Y-64770000D01*
X138202811Y-64514698D01*
X138513880Y-64049151D01*
X138623113Y-63500000D01*
X138513880Y-62950849D01*
X138202811Y-62485302D01*
X137820725Y-62230000D01*
X138202811Y-61974698D01*
X138513880Y-61509151D01*
X138623113Y-60960000D01*
X138513880Y-60410849D01*
X138202811Y-59945302D01*
X137820725Y-59690000D01*
X138202811Y-59434698D01*
X138513880Y-58969151D01*
X138623113Y-58420000D01*
X138513880Y-57870849D01*
X138202811Y-57405302D01*
X137820725Y-57150000D01*
X138202811Y-56894698D01*
X138513880Y-56429151D01*
X138623113Y-55880000D01*
X138513880Y-55330849D01*
X138202811Y-54865302D01*
X137820725Y-54610000D01*
X138202811Y-54354698D01*
X138513880Y-53889151D01*
X138623113Y-53340000D01*
X138513880Y-52790849D01*
X138202811Y-52325302D01*
X137820725Y-52070000D01*
X138202811Y-51814698D01*
X138513880Y-51349151D01*
X138623113Y-50800000D01*
X143316887Y-50800000D01*
X143426120Y-51349151D01*
X143737189Y-51814698D01*
X144119275Y-52070000D01*
X143737189Y-52325302D01*
X143426120Y-52790849D01*
X143316887Y-53340000D01*
X143426120Y-53889151D01*
X143737189Y-54354698D01*
X144119275Y-54610000D01*
X143737189Y-54865302D01*
X143426120Y-55330849D01*
X143316887Y-55880000D01*
X143426120Y-56429151D01*
X143737189Y-56894698D01*
X144119275Y-57150000D01*
X143737189Y-57405302D01*
X143426120Y-57870849D01*
X143316887Y-58420000D01*
X143426120Y-58969151D01*
X143737189Y-59434698D01*
X144119275Y-59690000D01*
X143737189Y-59945302D01*
X143426120Y-60410849D01*
X143316887Y-60960000D01*
X143426120Y-61509151D01*
X143737189Y-61974698D01*
X144119275Y-62230000D01*
X143737189Y-62485302D01*
X143426120Y-62950849D01*
X143316887Y-63500000D01*
X143426120Y-64049151D01*
X143737189Y-64514698D01*
X144141703Y-64784986D01*
X143924866Y-64887611D01*
X143548959Y-65302577D01*
X143388096Y-65690961D01*
X143510085Y-65913000D01*
X144653000Y-65913000D01*
X144653000Y-65893000D01*
X144907000Y-65893000D01*
X144907000Y-65913000D01*
X146049915Y-65913000D01*
X146171904Y-65690961D01*
X146011041Y-65302577D01*
X145687428Y-64945338D01*
X147204190Y-64945338D01*
X147414686Y-65454777D01*
X147804113Y-65844884D01*
X148313184Y-66056269D01*
X148864398Y-66056750D01*
X149373837Y-65846254D01*
X149763944Y-65456827D01*
X149931134Y-65054187D01*
X150964752Y-65054187D01*
X151182757Y-65581800D01*
X151586077Y-65985824D01*
X152113309Y-66204750D01*
X152684187Y-66205248D01*
X153211800Y-65987243D01*
X153421663Y-65777745D01*
X154071861Y-65777745D01*
X154145995Y-66023864D01*
X154683223Y-66216965D01*
X155253454Y-66189778D01*
X155654005Y-66023864D01*
X155728139Y-65777745D01*
X154900000Y-64949605D01*
X154071861Y-65777745D01*
X153421663Y-65777745D01*
X153615824Y-65583923D01*
X153643423Y-65517456D01*
X153646136Y-65524005D01*
X153892255Y-65598139D01*
X154720395Y-64770000D01*
X155079605Y-64770000D01*
X155907745Y-65598139D01*
X156153864Y-65524005D01*
X156346965Y-64986777D01*
X156319778Y-64416546D01*
X156153864Y-64015995D01*
X155907745Y-63941861D01*
X155079605Y-64770000D01*
X154720395Y-64770000D01*
X153892255Y-63941861D01*
X153646136Y-64015995D01*
X153643804Y-64022483D01*
X153617243Y-63958200D01*
X153421640Y-63762255D01*
X154071861Y-63762255D01*
X154900000Y-64590395D01*
X155728139Y-63762255D01*
X155654005Y-63516136D01*
X155116777Y-63323035D01*
X154546546Y-63350222D01*
X154145995Y-63516136D01*
X154071861Y-63762255D01*
X153421640Y-63762255D01*
X153213923Y-63554176D01*
X152686691Y-63335250D01*
X152115813Y-63334752D01*
X151588200Y-63552757D01*
X151184176Y-63956077D01*
X150965250Y-64483309D01*
X150964752Y-65054187D01*
X149931134Y-65054187D01*
X149975329Y-64947756D01*
X149975810Y-64396542D01*
X149765314Y-63887103D01*
X149375887Y-63496996D01*
X148866816Y-63285611D01*
X148315602Y-63285130D01*
X147806163Y-63495626D01*
X147416056Y-63885053D01*
X147204671Y-64394124D01*
X147204190Y-64945338D01*
X145687428Y-64945338D01*
X145635134Y-64887611D01*
X145418297Y-64784986D01*
X145822811Y-64514698D01*
X146133880Y-64049151D01*
X146243113Y-63500000D01*
X146133880Y-62950849D01*
X145822811Y-62485302D01*
X145440725Y-62230000D01*
X145822811Y-61974698D01*
X146133880Y-61509151D01*
X146243113Y-60960000D01*
X146133880Y-60410849D01*
X145901761Y-60063458D01*
X147204190Y-60063458D01*
X147414686Y-60572897D01*
X147804113Y-60963004D01*
X148313184Y-61174389D01*
X148864398Y-61174870D01*
X149373837Y-60964374D01*
X149763944Y-60574947D01*
X149975329Y-60065876D01*
X149975409Y-59974187D01*
X150964752Y-59974187D01*
X151182757Y-60501800D01*
X151586077Y-60905824D01*
X152113309Y-61124750D01*
X152684187Y-61125248D01*
X153211800Y-60907243D01*
X153421663Y-60697745D01*
X154071861Y-60697745D01*
X154145995Y-60943864D01*
X154683223Y-61136965D01*
X155253454Y-61109778D01*
X155654005Y-60943864D01*
X155728139Y-60697745D01*
X154900000Y-59869605D01*
X154071861Y-60697745D01*
X153421663Y-60697745D01*
X153615824Y-60503923D01*
X153643423Y-60437456D01*
X153646136Y-60444005D01*
X153892255Y-60518139D01*
X154720395Y-59690000D01*
X155079605Y-59690000D01*
X155907745Y-60518139D01*
X156153864Y-60444005D01*
X156346965Y-59906777D01*
X156319778Y-59336546D01*
X156153864Y-58935995D01*
X155907745Y-58861861D01*
X155079605Y-59690000D01*
X154720395Y-59690000D01*
X153892255Y-58861861D01*
X153646136Y-58935995D01*
X153643804Y-58942483D01*
X153617243Y-58878200D01*
X153421640Y-58682255D01*
X154071861Y-58682255D01*
X154900000Y-59510395D01*
X155728139Y-58682255D01*
X155654005Y-58436136D01*
X155116777Y-58243035D01*
X154546546Y-58270222D01*
X154145995Y-58436136D01*
X154071861Y-58682255D01*
X153421640Y-58682255D01*
X153213923Y-58474176D01*
X152686691Y-58255250D01*
X152115813Y-58254752D01*
X151588200Y-58472757D01*
X151184176Y-58876077D01*
X150965250Y-59403309D01*
X150964752Y-59974187D01*
X149975409Y-59974187D01*
X149975810Y-59514662D01*
X149765314Y-59005223D01*
X149375887Y-58615116D01*
X148866816Y-58403731D01*
X148315602Y-58403250D01*
X147806163Y-58613746D01*
X147416056Y-59003173D01*
X147204671Y-59512244D01*
X147204190Y-60063458D01*
X145901761Y-60063458D01*
X145822811Y-59945302D01*
X145440725Y-59690000D01*
X145822811Y-59434698D01*
X146133880Y-58969151D01*
X146243113Y-58420000D01*
X146172124Y-58063110D01*
X161118524Y-58063110D01*
X161239845Y-58293000D01*
X162433000Y-58293000D01*
X162433000Y-57099181D01*
X162687000Y-57099181D01*
X162687000Y-58293000D01*
X163880155Y-58293000D01*
X164001476Y-58063110D01*
X163831645Y-57653076D01*
X163441358Y-57224817D01*
X162916892Y-56978514D01*
X162687000Y-57099181D01*
X162433000Y-57099181D01*
X162203108Y-56978514D01*
X161678642Y-57224817D01*
X161288355Y-57653076D01*
X161118524Y-58063110D01*
X146172124Y-58063110D01*
X146133880Y-57870849D01*
X145822811Y-57405302D01*
X145440725Y-57150000D01*
X145822811Y-56894698D01*
X146133880Y-56429151D01*
X146243113Y-55880000D01*
X146133880Y-55330849D01*
X145822811Y-54865302D01*
X145440725Y-54610000D01*
X145822811Y-54354698D01*
X146133880Y-53889151D01*
X146243113Y-53340000D01*
X146133880Y-52790849D01*
X145822811Y-52325302D01*
X145440725Y-52070000D01*
X145822811Y-51814698D01*
X146133880Y-51349151D01*
X146243113Y-50800000D01*
X146133880Y-50250849D01*
X145822811Y-49785302D01*
X145357264Y-49474233D01*
X144808113Y-49365000D01*
X144751887Y-49365000D01*
X144202736Y-49474233D01*
X143737189Y-49785302D01*
X143426120Y-50250849D01*
X143316887Y-50800000D01*
X138623113Y-50800000D01*
X138513880Y-50250849D01*
X138202811Y-49785302D01*
X137737264Y-49474233D01*
X137188113Y-49365000D01*
X137131887Y-49365000D01*
X136582736Y-49474233D01*
X136117189Y-49785302D01*
X135806120Y-50250849D01*
X135696887Y-50800000D01*
X135806120Y-51349151D01*
X136117189Y-51814698D01*
X136499275Y-52070000D01*
X136117189Y-52325302D01*
X135806120Y-52790849D01*
X135696887Y-53340000D01*
X135806120Y-53889151D01*
X136117189Y-54354698D01*
X136499275Y-54610000D01*
X136117189Y-54865302D01*
X135806120Y-55330849D01*
X135696887Y-55880000D01*
X135806120Y-56429151D01*
X136117189Y-56894698D01*
X136499275Y-57150000D01*
X136117189Y-57405302D01*
X135806120Y-57870849D01*
X135696887Y-58420000D01*
X135806120Y-58969151D01*
X136117189Y-59434698D01*
X136499275Y-59690000D01*
X136117189Y-59945302D01*
X135806120Y-60410849D01*
X135696887Y-60960000D01*
X135806120Y-61509151D01*
X136117189Y-61974698D01*
X136499275Y-62230000D01*
X136117189Y-62485302D01*
X135885336Y-62832294D01*
X135634698Y-62457189D01*
X135169151Y-62146120D01*
X134620000Y-62036887D01*
X134070849Y-62146120D01*
X133605302Y-62457189D01*
X133331256Y-62867327D01*
X133257243Y-62688200D01*
X132853923Y-62284176D01*
X132326691Y-62065250D01*
X131755813Y-62064752D01*
X131228200Y-62282757D01*
X130824176Y-62686077D01*
X130796577Y-62752544D01*
X130793864Y-62745995D01*
X130547745Y-62671861D01*
X129719605Y-63500000D01*
X129360395Y-63500000D01*
X128532255Y-62671861D01*
X128286136Y-62745995D01*
X128093035Y-63283223D01*
X124092656Y-63283223D01*
X124040000Y-63272560D01*
X122340000Y-63272560D01*
X122104683Y-63316838D01*
X121888559Y-63455910D01*
X121743569Y-63668110D01*
X121692560Y-63920000D01*
X121692560Y-65620000D01*
X121736838Y-65855317D01*
X121875910Y-66071441D01*
X122088110Y-66216431D01*
X122155541Y-66230086D01*
X122110853Y-66259946D01*
X121788946Y-66741715D01*
X121675907Y-67310000D01*
X116330000Y-67310000D01*
X116330000Y-63442995D01*
X116584698Y-63272811D01*
X116895767Y-62807264D01*
X116958426Y-62492255D01*
X128711861Y-62492255D01*
X129540000Y-63320395D01*
X130368139Y-62492255D01*
X130294005Y-62246136D01*
X129756777Y-62053035D01*
X129186546Y-62080222D01*
X128785995Y-62246136D01*
X128711861Y-62492255D01*
X116958426Y-62492255D01*
X117005000Y-62258113D01*
X117005000Y-62201887D01*
X116895767Y-61652736D01*
X116584698Y-61187189D01*
X116119151Y-60876120D01*
X115570000Y-60766887D01*
X115020849Y-60876120D01*
X114555302Y-61187189D01*
X114244233Y-61652736D01*
X114135000Y-62201887D01*
X114135000Y-62258113D01*
X114244233Y-62807264D01*
X114555302Y-63272811D01*
X114810000Y-63442995D01*
X114810000Y-74961354D01*
X114758200Y-74982757D01*
X114354176Y-75386077D01*
X114135250Y-75913309D01*
X114134752Y-76484187D01*
X93257501Y-76484187D01*
X93583958Y-76348965D01*
X93682557Y-76082163D01*
X92710000Y-75109605D01*
X92695858Y-75123748D01*
X92516253Y-74944143D01*
X92530395Y-74930000D01*
X92889605Y-74930000D01*
X93862163Y-75902557D01*
X94128965Y-75803958D01*
X94355401Y-75194418D01*
X94331341Y-74544623D01*
X94128965Y-74056042D01*
X93862163Y-73957443D01*
X92889605Y-74930000D01*
X92530395Y-74930000D01*
X91557837Y-73957443D01*
X91291035Y-74056042D01*
X91257501Y-74146313D01*
X90625363Y-74169719D01*
X90136782Y-74372095D01*
X90038183Y-74638897D01*
X71247000Y-74638897D01*
X71247000Y-73777837D01*
X91737443Y-73777837D01*
X92710000Y-74750395D01*
X93682557Y-73777837D01*
X93583958Y-73511035D01*
X92974418Y-73284599D01*
X92324623Y-73308659D01*
X91836042Y-73511035D01*
X91737443Y-73777837D01*
X71247000Y-73777837D01*
X71247000Y-72860000D01*
X98882560Y-72860000D01*
X98882560Y-74460000D01*
X98926838Y-74695317D01*
X99065910Y-74911441D01*
X99278110Y-75056431D01*
X99530000Y-75107440D01*
X101130000Y-75107440D01*
X101365317Y-75063162D01*
X101581441Y-74924090D01*
X101726431Y-74711890D01*
X101735370Y-74667745D01*
X102001861Y-74667745D01*
X102075995Y-74913864D01*
X102613223Y-75106965D01*
X103183454Y-75079778D01*
X103584005Y-74913864D01*
X103658139Y-74667745D01*
X102830000Y-73839605D01*
X102001861Y-74667745D01*
X101735370Y-74667745D01*
X101774646Y-74473799D01*
X101822255Y-74488139D01*
X102650395Y-73660000D01*
X103009605Y-73660000D01*
X103837745Y-74488139D01*
X104083864Y-74414005D01*
X104276965Y-73876777D01*
X104249778Y-73306546D01*
X104083864Y-72905995D01*
X103837745Y-72831861D01*
X103009605Y-73660000D01*
X102650395Y-73660000D01*
X101822255Y-72831861D01*
X101774833Y-72846145D01*
X101738351Y-72652255D01*
X102001861Y-72652255D01*
X102830000Y-73480395D01*
X103658139Y-72652255D01*
X103584005Y-72406136D01*
X103046777Y-72213035D01*
X102476546Y-72240222D01*
X102075995Y-72406136D01*
X102001861Y-72652255D01*
X101738351Y-72652255D01*
X101733162Y-72624683D01*
X101594090Y-72408559D01*
X101381890Y-72263569D01*
X101130000Y-72212560D01*
X99530000Y-72212560D01*
X99294683Y-72256838D01*
X99078559Y-72395910D01*
X98933569Y-72608110D01*
X98882560Y-72860000D01*
X71247000Y-72860000D01*
X71247000Y-70173694D01*
X91075226Y-70173694D01*
X91323538Y-70774655D01*
X91782927Y-71234846D01*
X92383453Y-71484206D01*
X93033694Y-71484774D01*
X93634655Y-71236462D01*
X94094846Y-70777073D01*
X94158734Y-70623212D01*
X94732954Y-70623714D01*
X95333915Y-70375402D01*
X95794106Y-69916013D01*
X95930414Y-69587745D01*
X102041861Y-69587745D01*
X102115995Y-69833864D01*
X102653223Y-70026965D01*
X103223454Y-69999778D01*
X103624005Y-69833864D01*
X103698139Y-69587745D01*
X102870000Y-68759605D01*
X102041861Y-69587745D01*
X95930414Y-69587745D01*
X96043466Y-69315487D01*
X96044034Y-68665246D01*
X95919241Y-68363223D01*
X101423035Y-68363223D01*
X101450222Y-68933454D01*
X101616136Y-69334005D01*
X101862255Y-69408139D01*
X102690395Y-68580000D01*
X103049605Y-68580000D01*
X103877745Y-69408139D01*
X104123864Y-69334005D01*
X104126196Y-69327517D01*
X104152757Y-69391800D01*
X104556077Y-69795824D01*
X105083309Y-70014750D01*
X105654187Y-70015248D01*
X106181800Y-69797243D01*
X106585824Y-69393923D01*
X106804750Y-68866691D01*
X106805248Y-68295813D01*
X106587243Y-67768200D01*
X106183923Y-67364176D01*
X105656691Y-67145250D01*
X105085813Y-67144752D01*
X104558200Y-67362757D01*
X104154176Y-67766077D01*
X104126577Y-67832544D01*
X104123864Y-67825995D01*
X103877745Y-67751861D01*
X103049605Y-68580000D01*
X102690395Y-68580000D01*
X101862255Y-67751861D01*
X101616136Y-67825995D01*
X101423035Y-68363223D01*
X95919241Y-68363223D01*
X95795722Y-68064285D01*
X95336333Y-67604094D01*
X95259657Y-67572255D01*
X102041861Y-67572255D01*
X102870000Y-68400395D01*
X103698139Y-67572255D01*
X103624005Y-67326136D01*
X103086777Y-67133035D01*
X102516546Y-67160222D01*
X102115995Y-67326136D01*
X102041861Y-67572255D01*
X95259657Y-67572255D01*
X94735807Y-67354734D01*
X94085566Y-67354166D01*
X93484605Y-67602478D01*
X93024414Y-68061867D01*
X92960526Y-68215728D01*
X92386306Y-68215226D01*
X91785345Y-68463538D01*
X91325154Y-68922927D01*
X91075794Y-69523453D01*
X91075226Y-70173694D01*
X71247000Y-70173694D01*
X71247000Y-67652815D01*
X72794630Y-67652815D01*
X73118980Y-68437800D01*
X73719041Y-69038909D01*
X74503459Y-69364628D01*
X75352815Y-69365370D01*
X76137800Y-69041020D01*
X76738909Y-68440959D01*
X77064628Y-67656541D01*
X77064631Y-67652815D01*
X80414630Y-67652815D01*
X80738980Y-68437800D01*
X81339041Y-69038909D01*
X82123459Y-69364628D01*
X82972815Y-69365370D01*
X83757800Y-69041020D01*
X84358909Y-68440959D01*
X84684628Y-67656541D01*
X84685370Y-66807185D01*
X84361020Y-66022200D01*
X83760959Y-65421091D01*
X82976541Y-65095372D01*
X82127185Y-65094630D01*
X81342200Y-65418980D01*
X80741091Y-66019041D01*
X80415372Y-66803459D01*
X80414630Y-67652815D01*
X77064631Y-67652815D01*
X77065370Y-66807185D01*
X76741020Y-66022200D01*
X76140959Y-65421091D01*
X75356541Y-65095372D01*
X74507185Y-65094630D01*
X73722200Y-65418980D01*
X73121091Y-66019041D01*
X72795372Y-66803459D01*
X72794630Y-67652815D01*
X71247000Y-67652815D01*
X71247000Y-64770000D01*
X88502968Y-64770000D01*
X88627425Y-65395687D01*
X88981848Y-65926120D01*
X89512281Y-66280543D01*
X90137968Y-66405000D01*
X90202032Y-66405000D01*
X90827719Y-66280543D01*
X91358152Y-65926120D01*
X91712575Y-65395687D01*
X91837032Y-64770000D01*
X91712575Y-64144313D01*
X91462468Y-63770000D01*
X93602560Y-63770000D01*
X93602560Y-65770000D01*
X93646838Y-66005317D01*
X93785910Y-66221441D01*
X93998110Y-66366431D01*
X94250000Y-66417440D01*
X96250000Y-66417440D01*
X96485317Y-66373162D01*
X96701441Y-66234090D01*
X96846431Y-66021890D01*
X96897440Y-65770000D01*
X96897440Y-63870000D01*
X98782560Y-63870000D01*
X98782560Y-65670000D01*
X98826838Y-65905317D01*
X98965910Y-66121441D01*
X99178110Y-66266431D01*
X99430000Y-66317440D01*
X101230000Y-66317440D01*
X101465317Y-66273162D01*
X101681441Y-66134090D01*
X101826431Y-65921890D01*
X101836766Y-65870854D01*
X101962424Y-66007966D01*
X102505258Y-66261046D01*
X102743000Y-66140997D01*
X102743000Y-64897000D01*
X102723000Y-64897000D01*
X102723000Y-64643000D01*
X102743000Y-64643000D01*
X102743000Y-63399003D01*
X102997000Y-63399003D01*
X102997000Y-64643000D01*
X103017000Y-64643000D01*
X103017000Y-64897000D01*
X102997000Y-64897000D01*
X102997000Y-66140997D01*
X103234742Y-66261046D01*
X103777576Y-66007966D01*
X104135499Y-65617418D01*
X104294519Y-65855409D01*
X104792509Y-66188155D01*
X105379928Y-66305000D01*
X105440072Y-66305000D01*
X106027491Y-66188155D01*
X106525481Y-65855409D01*
X106858227Y-65357419D01*
X106975072Y-64770000D01*
X106858227Y-64182581D01*
X106525481Y-63684591D01*
X106027491Y-63351845D01*
X105440072Y-63235000D01*
X105379928Y-63235000D01*
X104792509Y-63351845D01*
X104294519Y-63684591D01*
X104135499Y-63922582D01*
X103777576Y-63532034D01*
X103234742Y-63278954D01*
X102997000Y-63399003D01*
X102743000Y-63399003D01*
X102505258Y-63278954D01*
X101962424Y-63532034D01*
X101839156Y-63666538D01*
X101833162Y-63634683D01*
X101694090Y-63418559D01*
X101481890Y-63273569D01*
X101230000Y-63222560D01*
X99430000Y-63222560D01*
X99194683Y-63266838D01*
X98978559Y-63405910D01*
X98833569Y-63618110D01*
X98782560Y-63870000D01*
X96897440Y-63870000D01*
X96897440Y-63770000D01*
X96853162Y-63534683D01*
X96714090Y-63318559D01*
X96501890Y-63173569D01*
X96250000Y-63122560D01*
X94250000Y-63122560D01*
X94014683Y-63166838D01*
X93798559Y-63305910D01*
X93653569Y-63518110D01*
X93602560Y-63770000D01*
X91462468Y-63770000D01*
X91358152Y-63613880D01*
X90827719Y-63259457D01*
X90202032Y-63135000D01*
X90137968Y-63135000D01*
X89512281Y-63259457D01*
X88981848Y-63613880D01*
X88627425Y-64144313D01*
X88502968Y-64770000D01*
X71247000Y-64770000D01*
X71247000Y-62652815D01*
X72794630Y-62652815D01*
X73118980Y-63437800D01*
X73719041Y-64038909D01*
X74503459Y-64364628D01*
X75352815Y-64365370D01*
X76137800Y-64041020D01*
X76738909Y-63440959D01*
X77064628Y-62656541D01*
X77064631Y-62652815D01*
X80414630Y-62652815D01*
X80738980Y-63437800D01*
X81339041Y-64038909D01*
X82123459Y-64364628D01*
X82972815Y-64365370D01*
X83757800Y-64041020D01*
X84358909Y-63440959D01*
X84684628Y-62656541D01*
X84685025Y-62201887D01*
X109055000Y-62201887D01*
X109055000Y-62258113D01*
X109164233Y-62807264D01*
X109475302Y-63272811D01*
X109940849Y-63583880D01*
X110490000Y-63693113D01*
X111039151Y-63583880D01*
X111504698Y-63272811D01*
X111815767Y-62807264D01*
X111925000Y-62258113D01*
X111925000Y-62201887D01*
X111815767Y-61652736D01*
X111504698Y-61187189D01*
X111039151Y-60876120D01*
X110490000Y-60766887D01*
X109940849Y-60876120D01*
X109475302Y-61187189D01*
X109164233Y-61652736D01*
X109055000Y-62201887D01*
X84685025Y-62201887D01*
X84685370Y-61807185D01*
X84361020Y-61022200D01*
X83760959Y-60421091D01*
X82976541Y-60095372D01*
X82127185Y-60094630D01*
X81342200Y-60418980D01*
X80741091Y-61019041D01*
X80415372Y-61803459D01*
X80414630Y-62652815D01*
X77064631Y-62652815D01*
X77065370Y-61807185D01*
X76741020Y-61022200D01*
X76140959Y-60421091D01*
X75356541Y-60095372D01*
X74507185Y-60094630D01*
X73722200Y-60418980D01*
X73121091Y-61019041D01*
X72795372Y-61803459D01*
X72794630Y-62652815D01*
X71247000Y-62652815D01*
X71247000Y-60070434D01*
X88579876Y-60070434D01*
X88776598Y-60545385D01*
X89210006Y-61013505D01*
X89789565Y-61280133D01*
X90043000Y-61161319D01*
X90043000Y-59817000D01*
X90297000Y-59817000D01*
X90297000Y-61161319D01*
X90550435Y-61280133D01*
X91129994Y-61013505D01*
X91563402Y-60545385D01*
X91760124Y-60070434D01*
X91640777Y-59817000D01*
X90297000Y-59817000D01*
X90043000Y-59817000D01*
X88699223Y-59817000D01*
X88579876Y-60070434D01*
X71247000Y-60070434D01*
X71247000Y-59690000D01*
X93582968Y-59690000D01*
X93707425Y-60315687D01*
X94061848Y-60846120D01*
X94592281Y-61200543D01*
X95217968Y-61325000D01*
X95282032Y-61325000D01*
X95907719Y-61200543D01*
X96438152Y-60846120D01*
X96792575Y-60315687D01*
X96917032Y-59690000D01*
X96792575Y-59064313D01*
X96600526Y-58776890D01*
X121748524Y-58776890D01*
X121918355Y-59186924D01*
X122308642Y-59615183D01*
X122833108Y-59861486D01*
X123063000Y-59740819D01*
X123063000Y-58547000D01*
X123317000Y-58547000D01*
X123317000Y-59740819D01*
X123546892Y-59861486D01*
X124071358Y-59615183D01*
X124461645Y-59186924D01*
X124631476Y-58776890D01*
X124510155Y-58547000D01*
X123317000Y-58547000D01*
X123063000Y-58547000D01*
X121869845Y-58547000D01*
X121748524Y-58776890D01*
X96600526Y-58776890D01*
X96438152Y-58533880D01*
X95907719Y-58179457D01*
X95282032Y-58055000D01*
X95217968Y-58055000D01*
X94592281Y-58179457D01*
X94061848Y-58533880D01*
X93707425Y-59064313D01*
X93582968Y-59690000D01*
X71247000Y-59690000D01*
X71247000Y-57652815D01*
X72794630Y-57652815D01*
X73118980Y-58437800D01*
X73719041Y-59038909D01*
X74503459Y-59364628D01*
X75352815Y-59365370D01*
X76137800Y-59041020D01*
X76738909Y-58440959D01*
X77064628Y-57656541D01*
X77064631Y-57652815D01*
X80414630Y-57652815D01*
X80738980Y-58437800D01*
X81339041Y-59038909D01*
X82123459Y-59364628D01*
X82972815Y-59365370D01*
X83107870Y-59309566D01*
X88579876Y-59309566D01*
X88699223Y-59563000D01*
X90043000Y-59563000D01*
X90043000Y-58218681D01*
X90297000Y-58218681D01*
X90297000Y-59563000D01*
X91640777Y-59563000D01*
X91760124Y-59309566D01*
X91563402Y-58834615D01*
X91129994Y-58366495D01*
X90550435Y-58099867D01*
X90297000Y-58218681D01*
X90043000Y-58218681D01*
X89789565Y-58099867D01*
X89210006Y-58366495D01*
X88776598Y-58834615D01*
X88579876Y-59309566D01*
X83107870Y-59309566D01*
X83757800Y-59041020D01*
X84358909Y-58440959D01*
X84684628Y-57656541D01*
X84685370Y-56807185D01*
X84361020Y-56022200D01*
X83760959Y-55421091D01*
X82976541Y-55095372D01*
X82127185Y-55094630D01*
X81342200Y-55418980D01*
X80741091Y-56019041D01*
X80415372Y-56803459D01*
X80414630Y-57652815D01*
X77064631Y-57652815D01*
X77065370Y-56807185D01*
X76741020Y-56022200D01*
X76140959Y-55421091D01*
X75356541Y-55095372D01*
X74507185Y-55094630D01*
X73722200Y-55418980D01*
X73121091Y-56019041D01*
X72795372Y-56803459D01*
X72794630Y-57652815D01*
X71247000Y-57652815D01*
X71247000Y-52354187D01*
X109054752Y-52354187D01*
X109272757Y-52881800D01*
X109676077Y-53285824D01*
X110203309Y-53504750D01*
X110774187Y-53505248D01*
X111301800Y-53287243D01*
X111705824Y-52883923D01*
X111924750Y-52356691D01*
X111924752Y-52354187D01*
X114134752Y-52354187D01*
X114352757Y-52881800D01*
X114756077Y-53285824D01*
X115283309Y-53504750D01*
X115854187Y-53505248D01*
X116381800Y-53287243D01*
X116785824Y-52883923D01*
X117004750Y-52356691D01*
X117005248Y-51785813D01*
X116787243Y-51258200D01*
X116383923Y-50854176D01*
X116253453Y-50800000D01*
X121675907Y-50800000D01*
X121788946Y-51368285D01*
X122110853Y-51850054D01*
X122440026Y-52070000D01*
X122110853Y-52289946D01*
X121788946Y-52771715D01*
X121675907Y-53340000D01*
X121788946Y-53908285D01*
X122110853Y-54390054D01*
X122440026Y-54610000D01*
X122110853Y-54829946D01*
X121788946Y-55311715D01*
X121675907Y-55880000D01*
X121788946Y-56448285D01*
X122110853Y-56930054D01*
X122451553Y-57157702D01*
X122308642Y-57224817D01*
X121918355Y-57653076D01*
X121748524Y-58063110D01*
X121869845Y-58293000D01*
X123063000Y-58293000D01*
X123063000Y-58273000D01*
X123317000Y-58273000D01*
X123317000Y-58293000D01*
X124510155Y-58293000D01*
X124631476Y-58063110D01*
X124461645Y-57653076D01*
X124071358Y-57224817D01*
X123928447Y-57157702D01*
X124269147Y-56930054D01*
X124591054Y-56448285D01*
X124704093Y-55880000D01*
X129295907Y-55880000D01*
X129408946Y-56448285D01*
X129730853Y-56930054D01*
X130060026Y-57150000D01*
X129730853Y-57369946D01*
X129408946Y-57851715D01*
X129295907Y-58420000D01*
X129408946Y-58988285D01*
X129730853Y-59470054D01*
X130212622Y-59791961D01*
X130780907Y-59905000D01*
X130839093Y-59905000D01*
X131407378Y-59791961D01*
X131889147Y-59470054D01*
X131889971Y-59468821D01*
X131896838Y-59505317D01*
X132035910Y-59721441D01*
X132248110Y-59866431D01*
X132500000Y-59917440D01*
X134200000Y-59917440D01*
X134435317Y-59873162D01*
X134651441Y-59734090D01*
X134796431Y-59521890D01*
X134847440Y-59270000D01*
X134847440Y-57570000D01*
X134803162Y-57334683D01*
X134664090Y-57118559D01*
X134451890Y-56973569D01*
X134384459Y-56959914D01*
X134429147Y-56930054D01*
X134751054Y-56448285D01*
X134864093Y-55880000D01*
X134751054Y-55311715D01*
X134429147Y-54829946D01*
X134099974Y-54610000D01*
X134429147Y-54390054D01*
X134751054Y-53908285D01*
X134864093Y-53340000D01*
X134751054Y-52771715D01*
X134429147Y-52289946D01*
X133947378Y-51968039D01*
X133379093Y-51855000D01*
X133320907Y-51855000D01*
X132752622Y-51968039D01*
X132270853Y-52289946D01*
X132081655Y-52573101D01*
X132081645Y-52573076D01*
X131691358Y-52144817D01*
X131166892Y-51898514D01*
X130937000Y-52019181D01*
X130937000Y-53213000D01*
X130957000Y-53213000D01*
X130957000Y-53467000D01*
X130937000Y-53467000D01*
X130937000Y-53487000D01*
X130683000Y-53487000D01*
X130683000Y-53467000D01*
X129489845Y-53467000D01*
X129368524Y-53696890D01*
X129538355Y-54106924D01*
X129928642Y-54535183D01*
X130071553Y-54602298D01*
X129730853Y-54829946D01*
X129408946Y-55311715D01*
X129295907Y-55880000D01*
X124704093Y-55880000D01*
X124591054Y-55311715D01*
X124269147Y-54829946D01*
X123939974Y-54610000D01*
X124269147Y-54390054D01*
X124591054Y-53908285D01*
X124704093Y-53340000D01*
X124633104Y-52983110D01*
X129368524Y-52983110D01*
X129489845Y-53213000D01*
X130683000Y-53213000D01*
X130683000Y-52019181D01*
X130453108Y-51898514D01*
X129928642Y-52144817D01*
X129538355Y-52573076D01*
X129368524Y-52983110D01*
X124633104Y-52983110D01*
X124591054Y-52771715D01*
X124269147Y-52289946D01*
X123939974Y-52070000D01*
X124269147Y-51850054D01*
X124591054Y-51368285D01*
X124704093Y-50800000D01*
X124591054Y-50231715D01*
X124269147Y-49749946D01*
X124227548Y-49722150D01*
X124275317Y-49713162D01*
X124491441Y-49574090D01*
X124636431Y-49361890D01*
X124687440Y-49110000D01*
X124687440Y-47432619D01*
X160324613Y-47432619D01*
X160664155Y-48254372D01*
X161292321Y-48883636D01*
X162113481Y-49224611D01*
X163002619Y-49225387D01*
X163824372Y-48885845D01*
X164453636Y-48257679D01*
X164794611Y-47436519D01*
X164795387Y-46547381D01*
X164455845Y-45725628D01*
X163827679Y-45096364D01*
X163006519Y-44755389D01*
X162117381Y-44754613D01*
X161295628Y-45094155D01*
X160666364Y-45722321D01*
X160325389Y-46543481D01*
X160324613Y-47432619D01*
X124687440Y-47432619D01*
X124687440Y-47410000D01*
X124643162Y-47174683D01*
X124504090Y-46958559D01*
X124291890Y-46813569D01*
X124040000Y-46762560D01*
X122340000Y-46762560D01*
X122104683Y-46806838D01*
X121888559Y-46945910D01*
X121743569Y-47158110D01*
X121692560Y-47410000D01*
X121692560Y-49110000D01*
X121736838Y-49345317D01*
X121875910Y-49561441D01*
X122088110Y-49706431D01*
X122155541Y-49720086D01*
X122110853Y-49749946D01*
X121788946Y-50231715D01*
X121675907Y-50800000D01*
X116253453Y-50800000D01*
X115856691Y-50635250D01*
X115285813Y-50634752D01*
X114758200Y-50852757D01*
X114354176Y-51256077D01*
X114135250Y-51783309D01*
X114134752Y-52354187D01*
X111924752Y-52354187D01*
X111925248Y-51785813D01*
X111707243Y-51258200D01*
X111303923Y-50854176D01*
X110776691Y-50635250D01*
X110205813Y-50634752D01*
X109678200Y-50852757D01*
X109274176Y-51256077D01*
X109055250Y-51783309D01*
X109054752Y-52354187D01*
X71247000Y-52354187D01*
X71247000Y-47432619D01*
X71424613Y-47432619D01*
X71764155Y-48254372D01*
X72392321Y-48883636D01*
X73213481Y-49224611D01*
X74102619Y-49225387D01*
X74924372Y-48885845D01*
X75553636Y-48257679D01*
X75894611Y-47436519D01*
X75894764Y-47260510D01*
X77093070Y-47260510D01*
X77093070Y-49259490D01*
X77137348Y-49494807D01*
X77276420Y-49710931D01*
X77488620Y-49855921D01*
X77740510Y-49906930D01*
X79739490Y-49906930D01*
X79974807Y-49862652D01*
X80190931Y-49723580D01*
X80301094Y-49562351D01*
X80320274Y-49583068D01*
X80899645Y-49849627D01*
X81153000Y-49730807D01*
X81153000Y-48387000D01*
X81407000Y-48387000D01*
X81407000Y-49730807D01*
X81660355Y-49849627D01*
X82239726Y-49583068D01*
X82672987Y-49115084D01*
X82869619Y-48640354D01*
X82750265Y-48387000D01*
X81407000Y-48387000D01*
X81153000Y-48387000D01*
X81133000Y-48387000D01*
X81133000Y-48133000D01*
X81153000Y-48133000D01*
X81153000Y-46789193D01*
X81407000Y-46789193D01*
X81407000Y-48133000D01*
X82750265Y-48133000D01*
X82869619Y-47879646D01*
X82672987Y-47404916D01*
X82539296Y-47260510D01*
X88523070Y-47260510D01*
X88523070Y-49259490D01*
X88567348Y-49494807D01*
X88706420Y-49710931D01*
X88918620Y-49855921D01*
X89170510Y-49906930D01*
X91169490Y-49906930D01*
X91404807Y-49862652D01*
X91620931Y-49723580D01*
X91734390Y-49557527D01*
X92052486Y-49770072D01*
X92677978Y-49894490D01*
X92742022Y-49894490D01*
X93367514Y-49770072D01*
X93897781Y-49415759D01*
X94252094Y-48885492D01*
X94376512Y-48260000D01*
X94346676Y-48110000D01*
X100438275Y-48110000D01*
X100619822Y-49022700D01*
X101136825Y-49796450D01*
X101910575Y-50313453D01*
X102823275Y-50495000D01*
X102916725Y-50495000D01*
X103829425Y-50313453D01*
X104603175Y-49796450D01*
X105120178Y-49022700D01*
X105207481Y-48583795D01*
X108854716Y-48583795D01*
X109103106Y-49184943D01*
X109562637Y-49645278D01*
X110163352Y-49894716D01*
X110813795Y-49895284D01*
X111414943Y-49646894D01*
X111875278Y-49187363D01*
X112124716Y-48586648D01*
X112124718Y-48583795D01*
X113934716Y-48583795D01*
X114183106Y-49184943D01*
X114642637Y-49645278D01*
X115243352Y-49894716D01*
X115893795Y-49895284D01*
X116494943Y-49646894D01*
X116955278Y-49187363D01*
X117204716Y-48586648D01*
X117205284Y-47936205D01*
X116956894Y-47335057D01*
X116894749Y-47272803D01*
X116929698Y-47258327D01*
X117108327Y-47079699D01*
X117205000Y-46846310D01*
X117205000Y-46005750D01*
X117046250Y-45847000D01*
X115697000Y-45847000D01*
X115697000Y-45867000D01*
X115443000Y-45867000D01*
X115443000Y-45847000D01*
X114093750Y-45847000D01*
X113935000Y-46005750D01*
X113935000Y-46846310D01*
X114031673Y-47079699D01*
X114210302Y-47258327D01*
X114244834Y-47272630D01*
X114184722Y-47332637D01*
X113935284Y-47933352D01*
X113934716Y-48583795D01*
X112124718Y-48583795D01*
X112125284Y-47936205D01*
X111876894Y-47335057D01*
X111814749Y-47272803D01*
X111849698Y-47258327D01*
X112028327Y-47079699D01*
X112125000Y-46846310D01*
X112125000Y-46005750D01*
X111966250Y-45847000D01*
X110617000Y-45847000D01*
X110617000Y-45867000D01*
X110363000Y-45867000D01*
X110363000Y-45847000D01*
X109013750Y-45847000D01*
X108855000Y-46005750D01*
X108855000Y-46846310D01*
X108951673Y-47079699D01*
X109130302Y-47258327D01*
X109164834Y-47272630D01*
X109104722Y-47332637D01*
X108855284Y-47933352D01*
X108854716Y-48583795D01*
X105207481Y-48583795D01*
X105301725Y-48110000D01*
X105120178Y-47197300D01*
X104603175Y-46423550D01*
X103829425Y-45906547D01*
X102916725Y-45725000D01*
X102823275Y-45725000D01*
X101910575Y-45906547D01*
X101136825Y-46423550D01*
X100619822Y-47197300D01*
X100438275Y-48110000D01*
X94346676Y-48110000D01*
X94252094Y-47634508D01*
X93897781Y-47104241D01*
X93367514Y-46749928D01*
X92742022Y-46625510D01*
X92677978Y-46625510D01*
X92052486Y-46749928D01*
X91732923Y-46963453D01*
X91633580Y-46809069D01*
X91421380Y-46664079D01*
X91169490Y-46613070D01*
X89170510Y-46613070D01*
X88935193Y-46657348D01*
X88719069Y-46796420D01*
X88574079Y-47008620D01*
X88523070Y-47260510D01*
X82539296Y-47260510D01*
X82239726Y-46936932D01*
X81660355Y-46670373D01*
X81407000Y-46789193D01*
X81153000Y-46789193D01*
X80899645Y-46670373D01*
X80320274Y-46936932D01*
X80299970Y-46958863D01*
X80203580Y-46809069D01*
X79991380Y-46664079D01*
X79739490Y-46613070D01*
X77740510Y-46613070D01*
X77505193Y-46657348D01*
X77289069Y-46796420D01*
X77144079Y-47008620D01*
X77093070Y-47260510D01*
X75894764Y-47260510D01*
X75895387Y-46547381D01*
X75555845Y-45725628D01*
X74927679Y-45096364D01*
X74106519Y-44755389D01*
X73217381Y-44754613D01*
X72395628Y-45094155D01*
X71766364Y-45722321D01*
X71425389Y-46543481D01*
X71424613Y-47432619D01*
X71247000Y-47432619D01*
X71247000Y-44577000D01*
X108861913Y-44577000D01*
X108855000Y-44593690D01*
M02*
