M48
;DRILL file {KiCad 4.0.7} date Thursday, 12. October 2017 'u30' 16:30:59
;FORMAT={-:-/ absolute / inch / decimal}
FMAT,2
INCH,TZ
T1C0.016
T2C0.031
T3C0.032
T4C0.039
T5C0.039
T6C0.043
T7C0.051
%
G90
G05
M72
T1
X4.95Y-2.9
X5.55Y-2.65
X5.55Y-2.8
X5.95Y-2.7
T2
X3.5Y-3.15
X3.5Y-3.25
X3.5Y-3.35
X3.65Y-3.15
X3.65Y-3.25
X3.95Y-2.9
X4.0484Y-2.9
X4.05Y-2.7
X4.05Y-3.15
X4.05Y-3.25
X4.1484Y-2.7
X4.35Y-2.05
X4.35Y-2.45
X4.55Y-2.05
X4.55Y-2.45
X4.55Y-3.
X4.55Y-3.4
X4.7Y-3.
X4.7Y-3.4
X5.1Y-2.5
X5.1Y-2.6
X5.1984Y-2.5
X5.1984Y-2.6
X5.3Y-2.5
X5.3Y-2.8
X5.4Y-2.
X5.4Y-2.1
X5.4Y-2.2
X5.4Y-2.3
X5.4Y-2.4
X5.4Y-2.5
X5.4Y-2.6
X5.4Y-2.7
X5.4Y-2.8
X5.4Y-2.9
X5.4Y-3.
X5.4Y-3.1
X5.4Y-3.2
X5.4Y-3.3
X5.7Y-2.
X5.7Y-2.1
X5.7Y-2.2
X5.7Y-2.3
X5.7Y-2.4
X5.7Y-2.5
X5.7Y-2.6
X5.7Y-2.7
X5.7Y-2.8
X5.7Y-2.9
X5.7Y-3.
X5.7Y-3.1
X5.7Y-3.2
X5.7Y-3.3
X5.7Y-3.45
X5.7984Y-3.45
X5.8Y-2.7
X5.8Y-3.3
X5.95Y-2.7
X5.95Y-2.7984
X6.Y-2.35
X6.Y-2.55
X6.0984Y-2.35
X6.0984Y-2.55
T3
X5.85Y-2.3539
X5.85Y-2.5461
T4
X3.55Y-2.35
X3.55Y-2.55
X3.75Y-2.35
X3.75Y-2.55
X3.95Y-2.55
X4.05Y-2.55
X4.15Y-2.55
X4.85Y-1.9
X4.85Y-2.
X4.85Y-2.1
X4.85Y-2.2
X4.85Y-2.3
X4.85Y-2.55
X4.85Y-2.65
X4.85Y-2.75
X4.85Y-2.85
X4.85Y-3.
X4.85Y-3.1
X4.85Y-3.2
X4.85Y-3.3
X5.05Y-3.
X5.05Y-3.1
X5.05Y-3.2
X5.05Y-3.3
X5.15Y-2.1
X5.15Y-2.2
X5.15Y-2.3
X5.25Y-2.1
X5.25Y-2.2
X5.25Y-2.3
X6.4Y-2.3
X6.4Y-2.4
X6.4Y-2.5
X6.4Y-2.6
X6.4Y-2.7
X6.4Y-2.8
X6.4Y-2.9
X6.4Y-3.
X6.4Y-3.1
X6.4Y-3.2
T5
X3.5831Y-2.9839
X3.65Y-2.75
X3.65Y-2.95
X3.7169Y-2.7161
X4.15Y-3.15
X4.25Y-3.15
X4.35Y-1.8
X4.35Y-1.9
X4.55Y-1.8
X4.55Y-1.9
T6
X3.1Y-1.9
X3.2Y-1.9
X3.55Y-1.9
X3.65Y-1.9
T7
X2.95Y-2.2531
X2.95Y-2.45
X2.95Y-2.6469
X2.95Y-3.25
X3.25Y-2.2531
X3.25Y-2.45
X3.25Y-2.6469
X3.25Y-3.25
T0
M30
